<svg width="1196" height="726" viewBox="0 0 1196 726" fill="none" xmlns="http://www.w3.org/2000/svg">
<g clip-path="url(#clip0_9_1217)">
<path d="M47.8358 0.911133H519.876C523.936 0.911133 527.226 4.20113 527.226 8.26113V88.3811C527.226 92.4411 523.936 95.7311 519.876 95.7311H47.8358C21.6658 95.7311 0.425781 74.4911 0.425781 48.3211C0.425781 22.1511 21.6658 0.911133 47.8358 0.911133Z" fill="#003049"/>
<path d="M44.5781 95.4209H475.928V239.261C475.928 252.041 465.548 262.421 452.768 262.421H67.7381C54.9581 262.421 44.5781 252.041 44.5781 239.261V95.4209Z" stroke="#003049" stroke-width="10" stroke-linecap="round" stroke-linejoin="round"/>
<path d="M81.3766 72.0409V34.4209C81.1466 34.5309 80.6966 34.7109 80.0366 34.9409C79.3666 35.1709 78.6366 35.3909 77.8266 35.6009C77.0266 35.8109 76.2866 36.0109 75.6266 36.2009C74.9566 36.3909 74.4866 36.5409 74.2266 36.6609V30.7609C74.7566 30.5709 75.4266 30.3009 76.2266 29.9609C77.0266 29.6209 77.8766 29.2309 78.7766 28.7909C79.6766 28.3509 80.5166 27.8709 81.2966 27.3309C82.0766 26.8009 82.7166 26.2409 83.2166 25.6709H89.2866V72.0509H81.3866L81.3766 72.0409Z" fill="white"/>
<path d="M715.933 198.471H1187.97C1192.03 198.471 1195.32 201.761 1195.32 205.821V285.941C1195.32 290.001 1192.03 293.291 1187.97 293.291H715.933C689.763 293.291 668.523 272.051 668.523 245.881C668.523 219.711 689.763 198.471 715.933 198.471Z" fill="#003049"/>
<path d="M712.676 292.971H1144.03V436.811C1144.03 449.591 1133.65 459.971 1120.87 459.971H735.836C723.056 459.971 712.676 449.591 712.676 436.811V292.971Z" stroke="#003049" stroke-width="10" stroke-linecap="round" stroke-linejoin="round"/>
<path d="M743.176 269.601V263.991L754.626 246.301C755.466 245.001 756.256 243.761 757.006 242.581C757.746 241.401 758.356 240.171 758.836 238.891C759.316 237.611 759.556 236.211 759.556 234.681C759.556 232.961 759.246 231.641 758.636 230.731C758.026 229.811 757.066 229.361 755.776 229.361C754.556 229.361 753.596 229.701 752.916 230.391C752.226 231.081 751.756 231.971 751.516 233.081C751.266 234.191 751.146 235.411 751.146 236.741V238.691H743.356V236.631C743.356 233.881 743.766 231.471 744.586 229.391C745.406 227.311 746.716 225.681 748.506 224.501C750.296 223.321 752.646 222.721 755.546 222.721C759.516 222.721 762.496 223.791 764.476 225.931C766.456 228.071 767.456 231.051 767.456 234.861C767.456 236.771 767.186 238.501 766.656 240.041C766.126 241.581 765.416 243.071 764.536 244.481C763.656 245.891 762.706 247.341 761.676 248.831L752.176 263.261H766.256V269.621H743.186L743.176 269.601Z" fill="white"/>
<path d="M47.8358 464.271H519.876C523.936 464.271 527.226 467.561 527.226 471.621V551.741C527.226 555.801 523.936 559.091 519.876 559.091H47.8358C21.6658 559.091 0.425781 537.851 0.425781 511.681C0.425781 485.511 21.6658 464.271 47.8358 464.271Z" fill="#003049"/>
<path d="M44.5781 558.781H475.928V702.621C475.928 715.401 465.548 725.781 452.768 725.781H67.7381C54.9581 725.781 44.5781 715.401 44.5781 702.621V558.781Z" stroke="#003049" stroke-width="10" stroke-linecap="round" stroke-linejoin="round"/>
<path d="M87.0475 536.091C84.1475 536.091 81.8075 535.551 80.0375 534.461C78.2575 533.371 76.9775 531.831 76.1675 529.821C75.3575 527.811 74.9675 525.481 74.9675 522.811V521.211H82.8075V522.581C82.8475 524.031 82.9775 525.271 83.2075 526.301C83.4375 527.331 83.8675 528.111 84.4975 528.651C85.1275 529.191 85.9975 529.451 87.0975 529.451C88.2775 529.451 89.1675 529.161 89.7575 528.591C90.3475 528.021 90.7475 527.181 90.9575 526.071C91.1675 524.961 91.2675 523.651 91.2675 522.121C91.2675 519.751 90.8975 517.891 90.1475 516.541C89.4075 515.191 87.9575 514.451 85.8275 514.341H84.5075V507.981H85.7075C87.8075 507.941 89.2575 507.381 90.0575 506.291C90.8575 505.201 91.2575 503.461 91.2575 501.051C91.2575 499.101 90.9575 497.581 90.3675 496.471C89.7775 495.361 88.6375 494.811 86.9575 494.811C85.2775 494.811 84.2175 495.421 83.6675 496.641C83.1175 497.861 82.8175 499.441 82.7775 501.391V503.111H74.9375V500.881C74.9375 498.251 75.4075 496.001 76.3375 494.151C77.2775 492.301 78.6375 490.891 80.4275 489.911C82.2175 488.941 84.3975 488.451 86.9575 488.451C89.5175 488.451 91.8075 488.931 93.5975 489.881C95.3875 490.841 96.7575 492.221 97.6875 494.031C98.6275 495.841 99.0875 498.071 99.0875 500.701C99.0875 503.331 98.5175 505.701 97.3675 507.461C96.2175 509.221 94.7475 510.361 92.9575 510.891C94.1775 511.271 95.2475 511.931 96.1675 512.871C97.0875 513.811 97.7975 515.031 98.3175 516.531C98.8375 518.041 99.0875 519.861 99.0875 522.001C99.0875 524.791 98.6975 527.241 97.9175 529.361C97.1375 531.481 95.8575 533.131 94.0775 534.311C92.2975 535.491 89.9475 536.091 87.0075 536.091H87.0475Z" fill="white"/>
<path d="M520.117 48.541H933.287C947.907 48.541 959.747 60.391 959.747 75.001V173.601" stroke="#003049" stroke-width="10" stroke-linecap="round" stroke-linejoin="round"/>
<path d="M982.546 150.851L959.436 173.951L936.336 150.851" stroke="#003049" stroke-width="10" stroke-linecap="round" stroke-linejoin="round"/>
<path d="M712.716 324.791H299.546C284.926 324.791 273.086 336.641 273.086 351.251V449.851" stroke="#003049" stroke-width="10" stroke-linecap="round" stroke-linejoin="round"/>
<path d="M250.285 427.101L273.395 450.201L296.495 427.101" stroke="#003049" stroke-width="10" stroke-linecap="round" stroke-linejoin="round"/>
<path d="M99.9531 144.661H326.063" stroke="#003049" stroke-width="10" stroke-linecap="round" stroke-linejoin="round"/>
<path d="M99.9531 178.081H240.053" stroke="#003049" stroke-width="10" stroke-linecap="round" stroke-linejoin="round"/>
<path d="M102.348 630.871H328.448" stroke="#003049" stroke-width="10" stroke-linecap="round" stroke-linejoin="round"/>
<path d="M102.348 664.291H242.438" stroke="#003049" stroke-width="10" stroke-linecap="round" stroke-linejoin="round"/>
<path d="M769.836 356.781H995.946" stroke="#003049" stroke-width="10" stroke-linecap="round" stroke-linejoin="round"/>
<path d="M769.836 390.201H1064.24" stroke="#003049" stroke-width="10" stroke-linecap="round" stroke-linejoin="round"/>
</g>
<defs>
<clipPath id="clip0_9_1217">
<rect width="1195" height="725" fill="white" transform="translate(0.425781 0.911133)"/>
</clipPath>
</defs>
</svg>
