<?xml version="1.0" encoding="UTF-8"?>
<svg width="226px" height="32px" viewBox="0 0 226 32" version="1.1" xmlns="http://www.w3.org/2000/svg" xmlns:xlink="http://www.w3.org/1999/xlink">
    <!-- Generator: Sketch 42 (36781) - http://www.bohemiancoding.com/sketch -->
    <title>Logo</title>
    <desc>Created with Sketch.</desc>
    <defs></defs>
    <g id="Symbols" stroke="none" stroke-width="1" fill="none" fill-rule="evenodd">
        <g id="Header-KIA" transform="translate(-10.000000, -11.000000)">
            <g id="Logo" transform="translate(10.000000, 11.000000)">
                <g id="Layer_1">
                    <path d="M52.13368,19.1296703 C51.9096804,20.2843309 51.2956391,21.3331972 50.38896,22.1098901 C49.4991798,22.7989093 48.3892157,23.1628625 47.25208,23.1384615 C45.4427705,23.1316635 43.7789882,22.1729773 42.90384,20.632967 C42.8013867,20.421978 42.7079733,20.2197802 42.6236,20.0263736 C42.535766,19.7838032 42.4721917,19.5335607 42.43376,19.2791209 C42.3107885,18.2051229 42.2624655,17.1242804 42.28912,16.043956 C42.261538,14.9577728 42.3098626,13.8710219 42.43376,12.7912088 C42.5070484,12.3248176 42.6662942,11.8751187 42.90384,11.4637363 C43.2827903,10.7547749 43.8393038,10.1500849 44.522,9.70549451 C46.3964021,8.52412183 48.8486942,8.69267177 50.5336,10.1186813 C51.3766397,10.9019031 51.9377246,11.9284521 52.13368,13.0461538 L49.9008,13.0461538 C49.7416526,12.4963393 49.4287038,12.0002714 48.9968,11.6131868 C48.5099809,11.2333345 47.9033321,11.0284035 47.2792,11.032967 C46.8361556,11.0344991 46.3996311,11.1368634 46.00456,11.3318681 C45.6529193,11.505392 45.3444192,11.7514 45.10056,12.0527473 C44.8131502,12.3834997 44.6254276,12.7851236 44.55816,13.2131868 C44.4283921,14.1423469 44.376994,15.0802726 44.40448,16.0175824 C44.3761813,16.9490569 44.4275851,17.8812067 44.55816,18.8043956 C44.6226746,19.2385142 44.8105244,19.6464995 45.10056,19.9824176 C45.3407822,20.2827657 45.6505132,20.5237312 46.00456,20.6857143 C46.3911117,20.9039456 46.8323829,21.0135099 47.2792,21.0021978 C48.4911373,20.9836435 49.5563117,20.2164711 49.92792,19.0945055 L52.13368,19.1296703 Z" id="Shape" fill="#231F20"></path>
                    <path d="M55.5056,16.0527473 C55.4782956,14.9665665 55.5266194,13.8798339 55.65024,12.8 C55.718784,12.3186136 55.8781494,11.8536751 56.12032,11.4285714 C56.505107,10.7354399 57.0611998,10.1463127 57.73848,9.71428571 C58.5376644,9.18730224 59.4850736,8.91397276 60.45048,8.93186813 C62.2703048,8.89229487 63.954257,9.86462457 64.78968,11.4373626 C65.0499701,11.8399529 65.2165819,12.2930268 65.27784,12.7648352 C65.3854699,13.8457399 65.4277293,14.9318589 65.4044,16.0175824 C65.4269201,17.0974463 65.3846617,18.1776685 65.27784,19.2527473 C65.2182901,19.7304352 65.0516493,20.1895902 64.78968,20.5978022 C64.4219475,21.2867936 63.8768999,21.8713601 63.20768,22.2945055 C62.3933541,22.8270185 61.4317207,23.1060358 60.45048,23.0945055 C58.6411705,23.0877074 56.9773882,22.1290213 56.10224,20.589011 C55.9997867,20.378022 55.9063733,20.1758242 55.822,19.9824176 C55.734166,19.7398472 55.6705917,19.4896046 55.63216,19.2351648 C55.5176434,18.1782485 55.4753638,17.1151077 55.5056,16.0527473 L55.5056,16.0527473 Z M57.60288,16.0527473 C57.5745813,16.9842217 57.6259851,17.9163715 57.75656,18.8395604 C57.8210746,19.273679 58.0089244,19.6816643 58.29896,20.0175824 C58.5391822,20.3179306 58.8489132,20.558896 59.20296,20.7208791 C59.5895117,20.9391104 60.0307829,21.0486748 60.4776,21.0373626 C60.9359443,21.0492687 61.3890067,20.9398799 61.7884,20.7208791 C62.1223131,20.5550157 62.4105763,20.3138717 62.62912,20.0175824 C62.9198438,19.6800559 63.1132532,19.2735465 63.1896,18.8395604 C63.294091,17.9143142 63.3243158,16.9825585 63.28,16.0527473 C63.3055575,15.1157277 63.2572025,14.1781816 63.13536,13.2483516 C62.956083,12.4597195 62.4487789,11.7785887 61.73416,11.367033 C61.3263564,11.1715652 60.8780061,11.0693281 60.42336,11.0681319 C59.9803156,11.0696639 59.5437911,11.1720283 59.14872,11.367033 C58.7970793,11.5405568 58.4885792,11.7865649 58.24472,12.0879121 C57.9569073,12.4184165 57.7691304,12.8201563 57.70232,13.2483516 C57.5936831,14.1791948 57.5634492,15.1171147 57.61192,16.0527473 L57.60288,16.0527473 Z" id="Shape" fill="#231F20"></path>
                    <polygon id="Shape" fill="#231F20" points="70.26792 9.08131868 72.24768 9.08131868 78.57568 18.989011 78.57568 18.989011 78.57568 9.08131868 80.67296 9.08131868 80.67296 23.0241758 78.648 23.0241758 72.4104 13.1164835 72.4104 13.1164835 72.4104 23.0241758 70.26792 23.0241758"></polygon>
                    <path d="M93.81712,21.9340659 C92.9314127,22.7381143 91.755828,23.1707736 90.54464,23.1384615 C88.7353305,23.1316635 87.0715482,22.1729773 86.1964,20.632967 C86.0939467,20.421978 86.0005333,20.2197802 85.91616,20.0263736 C85.828326,19.7838032 85.7647517,19.5335607 85.72632,19.2791209 C85.6033485,18.2051229 85.5550255,17.1242804 85.58168,16.043956 C85.554098,14.9577728 85.6024226,13.8710219 85.72632,12.7912088 C85.7996084,12.3248176 85.9588542,11.8751187 86.1964,11.4637363 C86.5750271,10.7545578 87.1316062,10.1497965 87.81456,9.70549451 C88.613487,9.17798249 89.5610729,8.90460201 90.52656,8.92307692 C92.3463848,8.88350367 94.030337,9.85583336 94.86576,11.4285714 C95.1260501,11.8311616 95.2926619,12.2842356 95.35392,12.756044 C95.4615499,13.8369487 95.5038093,14.9230676 95.48048,16.0087912 C95.48048,17.4564103 95.4473333,18.4673993 95.38104,19.0417582 C95.3330286,19.5080887 95.195017,19.9614316 94.97424,20.378022 L96.78224,21.8373626 L95.53472,23.2879121 L93.81712,21.9340659 Z M90.31864,19.1296703 L91.56616,17.6879121 L93.18432,18.9802198 C93.357832,18.0170513 93.4245074,17.0385502 93.3832,16.0615385 C93.4087575,15.1245189 93.3604025,14.1869728 93.23856,13.2571429 C93.059283,12.4685107 92.5519789,11.7873799 91.83736,11.3758242 C91.4295564,11.1803564 90.9812061,11.0781193 90.52656,11.0769231 C90.0835156,11.0784551 89.6469911,11.1808195 89.25192,11.3758242 C88.9002793,11.549348 88.5917792,11.7953561 88.34792,12.0967033 C88.0601073,12.4272077 87.8723304,12.8289475 87.80552,13.2571429 C87.6757521,14.186303 87.624354,15.1242287 87.65184,16.0615385 C87.6235413,16.9930129 87.6749451,17.9251627 87.80552,18.8483516 C87.8700346,19.2824702 88.0578844,19.6904555 88.34792,20.0263736 C88.5881422,20.3267218 88.8978732,20.5676872 89.25192,20.7296703 C89.6384717,20.9479016 90.0797429,21.057466 90.52656,21.0461538 C91.0894151,21.0731651 91.6428299,20.8979423 92.08144,20.5538462 L90.31864,19.1296703 Z" id="Shape" fill="#231F20"></path>
                    <path d="M99.97336,9.08131868 L102.07064,9.08131868 L102.07064,18.0835165 C102.025475,18.8866373 102.323115,19.6722857 102.89328,20.2549451 C103.423953,20.7772868 104.154525,21.060836 104.9092,21.0373626 C105.670083,21.0658052 106.408212,20.7818697 106.9432,20.2549451 C107.502207,19.6666666 107.792448,18.8833344 107.74776,18.0835165 L107.74776,9.08131868 L109.84504,9.08131868 L109.84504,18.3032967 C109.857211,20.246573 108.671864,22.0081073 106.835844,22.7752354 C104.999823,23.5423636 102.869943,23.1660017 101.4288,21.8197802 C100.447564,20.9054424 99.9202733,19.6234936 99.9824,18.3032967 L99.97336,9.08131868 Z" id="Shape" fill="#231F20"></path>
                    <polygon id="Shape" fill="#231F20" points="114.92552 9.08131868 123.79376 9.08131868 123.79376 11.0769231 117.0228 11.0769231 117.0228 15.0681319 122.79936 15.0681319 122.79936 16.9406593 117.0228 16.9406593 117.0228 21.0461538 123.79376 21.0461538 123.79376 23.032967 114.92552 23.032967"></polygon>
                    <path d="M128.13296,9.08131868 L133.55696,9.08131868 C134.578936,9.02808799 135.58555,9.34083917 136.38648,9.96043956 C137.284584,10.6967197 137.790105,11.7899014 137.76056,12.9318681 C137.845355,14.6632389 136.738068,16.2389764 135.04856,16.7912088 L138.25776,22.9450549 L135.76272,22.9450549 L132.888,17.0637363 L130.176,17.0637363 L130.176,23.0241758 L128.07872,23.0241758 L128.13296,9.08131868 Z M130.23024,15.1912088 L133.42136,15.1912088 C134.046178,15.2313462 134.659269,15.0123997 135.108882,14.5885626 C135.558495,14.1647255 135.802608,13.5756101 135.7808,12.967033 C135.825027,12.3612175 135.565797,11.7719018 135.08472,11.3846154 C134.636865,11.0701064 134.09005,10.917729 133.53888,10.9538462 L130.23928,10.9538462 L130.23024,15.1912088 Z" id="Shape" fill="#231F20"></path>
                    <polygon id="Shape" fill="#231F20" points="142.4252 9.08131868 151.29344 9.08131868 151.29344 11.0769231 144.52248 11.0769231 144.52248 15.0681319 150.29904 15.0681319 150.29904 16.9406593 144.52248 16.9406593 144.52248 21.0461538 151.29344 21.0461538 151.29344 23.032967 142.4252 23.032967"></polygon>
                    <path d="M155.63264,9.08131868 L160.48712,9.08131868 C162.240373,9.02257619 163.87764,9.93095122 164.71784,11.4285714 C165.043503,11.9280579 165.258983,12.4878561 165.35064,13.0725275 C165.438689,14.0605681 165.474896,15.0523308 165.45912,16.043956 C165.485958,17.0925988 165.431564,18.1417182 165.2964,19.1824176 C165.252981,19.4566548 165.177146,19.7250992 165.0704,19.9824176 C164.95394,20.2291849 164.824186,20.4698117 164.68168,20.7032967 C164.261529,21.3732446 163.677736,21.9319107 162.98216,22.3296703 C162.191486,22.8073568 161.272779,23.0460108 160.34248,23.0153846 L155.63264,23.0153846 L155.63264,9.08131868 Z M157.72992,21.0285714 L160.24304,21.0285714 C161.264363,21.1076122 162.249837,20.6435679 162.81944,19.8153846 C163.070669,19.4796296 163.226562,19.0854639 163.27144,18.6725275 C163.346053,17.8247538 163.376226,16.9738351 163.36184,16.1230769 C163.36184,14.9098901 163.331707,14.0307692 163.27144,13.4857143 C163.220771,13.0188446 163.032411,12.57617 162.72904,12.210989 C162.179069,11.4162024 161.234847,10.9671381 160.25208,11.032967 L157.73896,11.032967 L157.72992,21.0285714 Z" id="Shape" fill="#231F20"></path>
                    <path d="M177.33768,19.6483516 C178.435885,20.5590592 179.835926,21.0524505 181.27912,21.0373626 C183.08712,21.0373626 183.99112,20.3897436 183.99112,19.0945055 C183.99112,18.0571429 183.388453,17.432967 182.18312,17.221978 L180.37512,16.967033 C179.34077,16.8418705 178.382688,16.3729075 177.66312,15.6395604 C177.020895,14.9258362 176.678758,14.0030063 176.70488,13.0549451 C176.659512,11.9503846 177.100063,10.8793168 177.91624,10.1098901 C178.826545,9.32446246 180.018782,8.92008521 181.23392,8.98461538 C182.86008,8.98449547 184.443744,9.48964155 185.75392,10.4263736 L184.57872,12.1846154 C183.567777,11.5048824 182.372405,11.1316673 181.14352,11.1120879 C180.563434,11.0907201 179.993025,11.2611621 179.52536,11.5956044 C179.059576,11.9635343 178.801217,12.5247641 178.82928,13.1076923 C178.833389,13.5168549 179.002136,13.9081759 179.29936,14.1978022 C179.708449,14.5754889 180.231192,14.8158028 180.79096,14.8835165 C181.17064,14.9479853 181.691947,15.0212454 182.35488,15.1032967 C183.467857,15.1889117 184.502525,15.6935848 185.23864,16.5098901 C185.851696,17.2571271 186.172055,18.1917526 186.14264,19.1472527 C186.07032,21.8139194 184.446133,23.1648352 181.27008,23.2 C179.321367,23.2384221 177.42952,22.5602774 175.97264,21.3010989 L177.33768,19.6483516 Z" id="Shape" fill="#231F20"></path>
                    <polygon id="Shape" fill="#231F20" points="190.744 9.08131868 199.61224 9.08131868 199.61224 11.0769231 192.85032 11.0769231 192.85032 15.0681319 198.62688 15.0681319 198.62688 16.9406593 192.85032 16.9406593 192.85032 21.0461538 199.61224 21.0461538 199.61224 23.032967 190.744 23.032967"></polygon>
                    <polygon id="Shape" fill="#231F20" points="203.93336 9.08131868 206.03064 9.08131868 206.03064 21.0373626 212.79256 21.0373626 212.79256 23.0241758 203.92432 23.0241758"></polygon>
                    <polygon id="Shape" fill="#231F20" points="217.14984 9.08131868 226 9.08131868 226 11.0769231 219.23808 11.0769231 219.23808 15.2 225.01464 15.2 225.01464 17.0725275 219.23808 17.0725275 219.23808 23.032967 217.1408 23.032967"></polygon>
                    <path d="M29.35288,7.42857143 L29.35288,6.22417582 L29.35288,5.11648352 L28.21384,5.05494505 L27.0296,5.0021978 C26.2831452,4.99007219 25.5378445,4.94018792 24.79672,4.85274725 C22.148,4.48351648 17.176,1.90769231 15.42224,0.949450549 L14.83464,0.624175824 L14.24704,0.931868132 C14.16568,0.975824176 6.45456,4.98461538 1.92552,4.98461538 L1.57296,4.98461538 L0.37968,4.92307692 L0.29832,6.08351648 C0.29832,6.43516484 0.35256,10.6285714 0.5424,12.4923077 C0.864913584,16.0651263 1.92896056,19.5372651 3.67024,22.6989011 C5.93928,26.7340659 13.8764,31.1736264 14.21992,31.367033 L14.85272,31.7186813 L15.47648,31.3318681 C15.73864,31.1648352 22.03952,27.1824176 25.47472,22.8483516 C26.2231613,21.9360772 26.8321203,20.9234156 27.28272,19.8417582 C28.4404219,16.7992026 29.1200261,13.6043553 29.29864,10.3648352 C29.38904,9.35384615 29.37096,8.37802198 29.35288,7.42857143 Z M28.1144,10.2681319 C27.9534184,13.3906941 27.3135536,16.4723376 26.216,19.410989 C25.8006177,20.3840025 25.2467829,21.295467 24.57072,22.1186813 C23.9589772,22.8689819 23.3008544,23.5823881 22.6,24.2549451 L17.41104,20.6417582 L17.5828,17.0637363 L13.56,13.4065934 L15.96464,17.8021978 L15.25048,21.0197802 L21.36152,25.3450549 C19.3085853,27.1562027 17.1176638,28.8136818 14.80752,30.3032967 C14.80752,30.3032967 6.85232,25.9076923 4.72792,22.1010989 C3.05558563,19.0812542 2.03723204,15.760217 1.73568,12.3428571 C1.54584,10.4791209 1.48256,6.33846154 1.50064,6.12747253 L1.91648,6.12747253 C6.80712,6.12747253 14.80752,1.93406593 14.80752,1.93406593 C14.80752,1.93406593 21.13552,5.5032967 24.59784,5.98681319 C25.72784,6.14505495 26.88496,6.12747253 28.12344,6.18901099 C28.13248,7.52527473 28.21384,8.90549451 28.1144,10.2681319 Z" id="Shape" fill="#7F5E26"></path>
                </g>
            </g>
        </g>
    </g>
</svg>