<svg width="1543" height="1683" viewBox="0 0 1543 1683" fill="none" xmlns="http://www.w3.org/2000/svg">
<g clip-path="url(#clip0_10_1450)">
<path d="M1513.5 1459.38C1401.95 1486.22 1294.52 1453.19 1294.52 1453.19C1277.27 1460.4 1310.74 1466.98 1293.46 1472.99H544.065L539.968 1455.24C538.133 1057.53 633.394 881.121 633.394 881.121C945.354 1015.37 1251.12 883.179 1251.12 883.179C1554.82 955.48 1513.5 1459.38 1513.5 1459.38Z" fill="#003049"/>
<path d="M1234.85 551.246C1235.81 554.588 1239.35 566.712 1239.35 566.712C1245.33 590.615 1248.47 615.619 1248.47 641.336V884.728L1173.81 905.289C1008.94 950.711 834.538 947.96 671.169 897.382L630.275 884.728V641.336C630.275 607.223 635.8 574.436 646.033 543.726C660.14 501.198 683.298 462.786 713.204 430.752" stroke="#003049" stroke-width="14" stroke-linecap="round" stroke-linejoin="round"/>
<path d="M1139.95 406.299C1139.57 405.911 1139.16 405.565 1138.75 405.259" stroke="#003049" stroke-width="14" stroke-linecap="round" stroke-linejoin="round"/>
<path d="M883.586 552.59V646.287C883.586 655.09 877.695 662.813 869.215 665.177C854.15 669.355 838.657 671.413 823.204 671.372C804.287 671.311 784.819 666.889 773.831 663.893C768.51 662.447 764.82 657.597 764.82 652.074V552.611C764.82 500.668 814.724 494.086 823.021 493.352C823.714 493.291 824.428 493.271 825.141 493.271C857.513 493.78 883.586 520.149 883.586 552.59Z" stroke="#003049" stroke-width="14" stroke-linecap="round" stroke-linejoin="round"/>
<path d="M895.123 721.664C900.097 712.392 909.882 706.096 921.155 706.096C932.428 706.096 942.479 712.576 947.371 722.051" stroke="#003049" stroke-width="14" stroke-linecap="round" stroke-linejoin="round"/>
<path d="M1234.44 551.938C1234.44 551.938 1296.64 522.309 1319.22 575.964C1341.81 629.618 1282.51 674.796 1249.55 676.67" stroke="#003049" stroke-width="14" stroke-linecap="round" stroke-linejoin="round"/>
<path d="M630.764 680.196C597.76 678.301 538.316 633.062 560.984 579.285C580.371 533.252 628.807 549.472 642.322 555.076" stroke="#003049" stroke-width="14" stroke-linecap="round" stroke-linejoin="round"/>
<path d="M630.275 726.005C621.897 728.389 613.029 729.632 603.876 729.632C549.875 729.632 506.107 685.861 506.107 631.901C506.107 604.798 517.156 580.243 535.014 562.555C496.934 553.385 468.639 519.171 468.639 478.293C468.639 430.67 507.106 392.014 554.686 391.667C530.57 378.605 514.18 353.031 514.18 323.687C514.18 281.016 548.754 246.435 591.461 246.435C600.716 246.435 609.584 248.065 617.779 251.02C609.054 237.51 603.978 221.432 603.978 204.111C603.978 156.243 642.792 117.444 690.637 117.444C704.784 117.444 718.096 120.868 729.899 126.859C729.838 125.228 729.757 123.619 729.757 121.968C729.757 58.1041 781.536 6.32422 845.444 6.32422C881.608 6.32422 913.899 22.9525 935.12 48.9137C955.709 29.9828 983.209 18.3878 1013.4 18.3878C1058.25 18.3878 1097.1 43.9008 1116.29 81.1921C1133.84 70.4734 1154.45 64.2989 1176.53 64.2989C1240.41 64.2989 1292.21 116.058 1292.21 179.943C1292.21 192.047 1290.36 203.703 1286.89 214.646C1295.01 211.793 1303.73 210.204 1312.8 210.204C1355.49 210.204 1390.08 244.805 1390.08 287.456C1390.08 303.493 1385.19 318.389 1376.83 330.738C1419.64 336.016 1452.81 372.512 1452.81 416.712C1452.81 444.568 1439.62 469.347 1419.21 485.161C1455.2 499.201 1480.74 534.128 1480.74 575.026C1480.74 615.925 1454.99 651.178 1418.81 665.076C1422.88 675.774 1425.15 687.349 1425.15 699.453C1425.15 752.7 1381.95 795.881 1328.64 795.881C1295.21 795.881 1265.75 778.885 1248.47 753.047" stroke="#003049" stroke-width="14" stroke-linecap="round" stroke-linejoin="round"/>
<path d="M1234.16 552.896C1230.96 553.202 1227.67 553.385 1224.35 553.385C1170.33 553.385 1126.58 509.614 1126.58 455.653C1126.58 437.66 1131.47 420.787 1139.97 406.299C1140.57 405.3 1141.18 404.302 1141.81 403.303C1140.81 403.996 1139.81 404.648 1138.77 405.259C1122.14 415.876 1102.4 422.03 1081.22 422.03C1028.71 422.03 985.065 384.291 975.851 334.508C975.708 333.896 975.606 333.265 975.504 332.653C975.26 333.244 974.995 333.835 974.669 334.385C960.358 365.176 929.127 386.532 892.943 386.532C865.382 386.532 840.675 374.142 824.142 354.6C822.899 353.153 821.737 351.707 820.595 350.178C820.208 352.359 819.759 354.498 819.25 356.597C808.935 399.492 770.324 431.404 724.233 431.404C720.502 431.404 716.853 431.2 713.225 430.793" stroke="#003049" stroke-width="14" stroke-linecap="round" stroke-linejoin="round"/>
<path d="M630.275 726.005C621.897 728.389 613.029 729.632 603.876 729.632C549.875 729.632 506.107 685.861 506.107 631.901C506.107 604.798 517.156 580.243 535.014 562.555C496.934 553.385 468.639 519.171 468.639 478.293C468.639 430.67 507.106 392.014 554.686 391.667C530.57 378.605 514.18 353.031 514.18 323.687C514.18 281.016 548.754 246.435 591.461 246.435C600.716 246.435 609.584 248.065 617.779 251.02C609.054 237.51 603.978 221.432 603.978 204.111C603.978 156.243 642.792 117.444 690.637 117.444C704.784 117.444 718.096 120.868 729.899 126.859C729.838 125.228 729.757 123.619 729.757 121.968C729.757 58.1041 781.536 6.32422 845.444 6.32422C881.608 6.32422 913.899 22.9525 935.12 48.9137C955.709 29.9828 983.209 18.3878 1013.4 18.3878C1058.25 18.3878 1097.1 43.9008 1116.29 81.1921C1133.84 70.4734 1154.45 64.2989 1176.53 64.2989C1240.41 64.2989 1292.21 116.058 1292.21 179.943C1292.21 192.047 1290.36 203.703 1286.89 214.646C1295.01 211.793 1303.73 210.204 1312.8 210.204C1355.49 210.204 1390.08 244.805 1390.08 287.456C1390.08 303.493 1385.19 318.389 1376.83 330.738C1419.64 336.016 1452.81 372.512 1452.81 416.712C1452.81 444.568 1439.62 469.347 1419.21 485.161C1455.2 499.201 1480.74 534.128 1480.74 575.026C1480.74 615.925 1454.99 651.178 1418.81 665.076C1422.88 675.774 1425.15 687.349 1425.15 699.453C1425.15 752.7 1381.95 795.881 1328.64 795.881C1295.21 795.881 1265.75 778.885 1248.47 753.047" stroke="#003049" stroke-width="14" stroke-linecap="round" stroke-linejoin="round"/>
<path d="M1234.16 552.896C1230.96 553.202 1227.67 553.385 1224.35 553.385C1170.33 553.385 1126.58 509.614 1126.58 455.653C1126.58 437.66 1131.47 420.787 1139.97 406.299C1140.57 405.3 1141.18 404.302 1141.81 403.303C1140.81 403.996 1139.81 404.648 1138.77 405.259C1122.14 415.876 1102.4 422.03 1081.22 422.03C1028.71 422.03 985.065 384.291 975.851 334.508C975.708 333.896 975.606 333.265 975.504 332.653C975.26 333.244 974.995 333.835 974.669 334.385C960.358 365.176 929.127 386.532 892.943 386.532C865.382 386.532 840.675 374.142 824.142 354.6C822.899 353.153 821.737 351.707 820.595 350.178C820.208 352.359 819.759 354.498 819.25 356.597C808.935 399.492 770.324 431.404 724.233 431.404C720.502 431.404 716.853 431.2 713.225 430.793" stroke="#003049" stroke-width="14" stroke-linecap="round" stroke-linejoin="round"/>
<path d="M786.611 755.716C812.827 785.304 865.666 805.519 926.537 805.458C1013.32 805.376 1063.34 758.711 1065.2 756.674" stroke="#003049" stroke-width="14" stroke-linecap="round" stroke-linejoin="round"/>
<path d="M1245.59 884.707C1245.59 884.707 1529.56 911.504 1518.76 1460.34C1518.76 1460.34 1379.2 1482.9 1291.32 1460.34C1291.32 1460.34 1311.01 1322.95 1291.32 1235.98" stroke="#003049" stroke-width="14" stroke-linecap="round" stroke-linejoin="round"/>
<path d="M1323.99 1545.88C1323.99 1545.88 1298.76 1676.79 1365.01 1676C1365.01 1676 1390.25 1678.36 1402.89 1657.86" stroke="#003049" stroke-width="14" stroke-linecap="round" stroke-linejoin="round"/>
<path d="M1379.22 1544.13C1379.22 1544.13 1370.49 1677.16 1436.16 1668.11C1436.16 1668.11 1459.97 1667.36 1470.53 1647.3" stroke="#003049" stroke-width="14" stroke-linecap="round" stroke-linejoin="round"/>
<path d="M1324.79 1640.52H1324.3C1224.86 1644.59 1294.39 1467.39 1296.66 1461.62" stroke="#003049" stroke-width="14" stroke-linecap="round" stroke-linejoin="round"/>
<path d="M1518.37 1460.4C1536.41 1508.31 1556.94 1647.32 1495.25 1651.77C1485.45 1652.46 1477.31 1650.77 1470.52 1647.32C1429.81 1626.56 1437.58 1543.44 1437.58 1543.44" stroke="#003049" stroke-width="14" stroke-linecap="round" stroke-linejoin="round"/>
<path d="M1291.32 1235.98C1311.01 1322.93 1291.32 1460.34 1291.32 1460.34" stroke="white" stroke-width="14" stroke-linecap="round" stroke-linejoin="round"/>
<path d="M1096.59 552.59V646.287C1096.59 655.09 1090.7 662.813 1082.22 665.177C1067.16 669.355 1051.66 671.413 1036.21 671.372C1017.29 671.311 997.826 666.889 986.838 663.893C981.518 662.447 977.828 657.597 977.828 652.074V552.611C977.828 500.668 1027.73 494.086 1036.03 493.352C1036.72 493.291 1037.44 493.271 1038.15 493.271C1070.52 493.78 1096.59 520.149 1096.59 552.59Z" stroke="#003049" stroke-width="14" stroke-linecap="round" stroke-linejoin="round"/>
<path d="M883.586 552.591V646.288C883.586 655.091 877.695 662.814 869.194 665.158C863.466 666.747 857.656 668.031 851.826 669.009C842.489 670.578 833.071 671.352 823.653 671.352H823.204C812.298 671.312 801.208 669.824 791.668 668.011C784.655 666.666 778.499 665.158 773.831 663.874C768.51 662.427 764.82 657.577 764.82 652.055V552.591C764.82 500.648 814.724 494.066 823.021 493.332C823.734 493.271 824.428 493.251 825.141 493.271C857.513 493.781 883.586 520.15 883.586 552.591Z" stroke="#003049" stroke-width="14" stroke-linecap="round" stroke-linejoin="round"/>
<path d="M1096.59 552.59V646.287C1096.59 655.09 1090.7 662.813 1082.22 665.177C1067.16 669.355 1051.66 671.413 1036.21 671.372C1017.29 671.311 997.826 666.889 986.838 663.893C981.518 662.447 977.828 657.597 977.828 652.074V552.611C977.828 500.668 1027.73 494.086 1036.03 493.352C1036.72 493.291 1037.44 493.271 1038.15 493.271C1070.52 493.78 1096.59 520.149 1096.59 552.59Z" stroke="#003049" stroke-width="14" stroke-linecap="round" stroke-linejoin="round"/>
<path d="M350.954 661.611C350.954 661.611 216.409 820.069 145.121 846.804C145.121 846.804 429.377 1153.65 609.034 1209.77L721.48 938.463C721.48 938.463 545.574 844.93 350.974 661.611H350.954Z" fill="#003049"/>
<path d="M330.994 690.589C330.994 690.589 358.087 513.465 274.547 491.111C274.547 491.111 222.34 486.628 247.699 616.373C247.699 616.373 167.156 489.623 103.003 498.569C103.003 498.569 55.26 513.486 107.488 570.136L159.695 626.806" stroke="#003049" stroke-width="14" stroke-linecap="round" stroke-linejoin="round"/>
<path d="M107.468 570.136C107.468 570.136 67.1866 517.948 32.8778 538.815C-1.43101 559.682 111.933 675.998 111.933 675.998" stroke="#003049" stroke-width="14" stroke-linecap="round" stroke-linejoin="round"/>
<path d="M70.2235 627.01C70.2235 627.01 29.9417 585.256 10.5551 612.094C-8.8315 638.931 50.7961 780.149 170.133 834.7" stroke="#003049" stroke-width="14" stroke-linecap="round" stroke-linejoin="round"/>
<path d="M864.566 615.354C864.566 636.364 859.694 655.376 851.826 669.009C842.489 670.578 833.071 671.352 823.653 671.352H823.204C812.298 671.311 801.208 669.824 791.668 668.01C784.125 654.459 779.457 635.875 779.457 615.354C779.457 573.845 798.517 540.181 822.022 540.181C845.526 540.181 864.566 573.845 864.566 615.354Z" fill="#003049"/>
<path d="M1080.14 615.354C1080.14 636.364 1075.27 655.376 1067.4 669.009C1058.07 670.578 1048.65 671.352 1039.23 671.352H1038.78C1027.87 671.311 1016.78 669.824 1007.24 668.01C999.701 654.459 995.033 635.875 995.033 615.354C995.033 573.845 1014.09 540.181 1037.6 540.181C1061.1 540.181 1080.14 573.845 1080.14 615.354Z" fill="#003049"/>
<path d="M1289.97 1472.99H1275.94H577.313H310.1" stroke="#003049" stroke-width="14" stroke-linecap="round" stroke-linejoin="round"/>
</g>
<defs>
<clipPath id="clip0_10_1450">
<rect width="1542" height="1682" fill="white" transform="translate(0.832031 0.19043)"/>
</clipPath>
</defs>
</svg>
