<svg width="1160" height="762" viewBox="0 0 1160 762" fill="none" xmlns="http://www.w3.org/2000/svg">
<g clip-path="url(#clip0_9_1195)">
<path d="M411.544 390.712C347.724 378.742 295.874 163.372 459.404 71.6321C622.934 -20.1079 718.654 118.162 718.654 118.162C769.174 118.162 770.504 163.362 770.504 163.362C763.854 283.022 537.844 184.632 537.844 184.632C537.844 184.632 516.724 292.852 442.194 275.962C432.154 273.692 424.344 265.012 413.244 265.012C389.084 265.012 369.494 284.602 369.494 308.762C369.494 332.922 389.084 352.512 413.244 352.512V442.992C413.244 442.992 589.954 527.992 727.764 442.992C727.764 442.992 745.794 343.822 727.764 218.892" stroke="#003049" stroke-width="10" stroke-linecap="round" stroke-linejoin="round"/>
<path d="M987.463 259.032C987.463 259.032 981.403 171.312 1023.14 163.762C1023.14 163.762 1048.85 163.692 1031.19 226.112C1031.19 226.112 1075.71 167.392 1106.7 174.372C1106.7 174.372 1129.43 183.602 1101.61 209.192L1073.79 234.782" stroke="#003049" stroke-width="10" stroke-linecap="round" stroke-linejoin="round"/>
<path d="M1101.62 209.182C1101.62 209.182 1123.43 185.292 1139.35 196.892C1155.28 208.492 1095.14 260.782 1095.14 260.782" stroke="#003049" stroke-width="10" stroke-linecap="round" stroke-linejoin="round"/>
<path d="M1117.52 238.512C1117.52 238.512 1138.9 219.722 1147.29 233.642C1155.68 247.552 1120.8 314.202 1060.25 336.032" stroke="#003049" stroke-width="10" stroke-linecap="round" stroke-linejoin="round"/>
<path d="M164.144 259.032C164.144 259.032 170.204 171.312 128.464 163.762C128.464 163.762 102.754 163.692 120.414 226.112C120.414 226.112 75.8938 167.392 44.9038 174.372C44.9038 174.372 22.1738 183.602 49.9938 209.192L77.8138 234.782" stroke="#003049" stroke-width="10" stroke-linecap="round" stroke-linejoin="round"/>
<path d="M49.9937 209.182C49.9937 209.182 28.1837 185.292 12.2637 196.892C-3.66626 208.492 56.4737 260.782 56.4737 260.782" stroke="#003049" stroke-width="10" stroke-linecap="round" stroke-linejoin="round"/>
<path d="M34.0848 238.512C34.0848 238.512 12.7048 219.722 4.31476 233.642C-4.07524 247.552 30.8048 314.202 91.3548 336.032" stroke="#003049" stroke-width="10" stroke-linecap="round" stroke-linejoin="round"/>
<path d="M633.196 373.082C630.756 368.532 625.956 365.442 620.426 365.442C614.826 365.442 609.966 368.622 607.566 373.272" stroke="#003049" stroke-width="10" stroke-linecap="round" stroke-linejoin="round"/>
<path d="M623.065 407.582C623.065 407.582 593.055 408.852 557.865 387.412C557.865 387.412 546.165 426.102 578.425 437.252C610.685 448.392 623.065 407.582 623.065 407.582Z" stroke="#003049" stroke-width="10" stroke-linecap="round" stroke-linejoin="round"/>
<path d="M627.676 291.732V337.712C627.676 342.032 630.566 345.822 634.726 346.982C642.116 349.032 649.716 350.042 657.296 350.022C666.576 349.992 676.126 347.822 681.516 346.352C684.126 345.642 685.936 343.262 685.936 340.552V291.742C685.936 266.252 661.456 263.022 657.386 262.662C657.046 262.632 656.696 262.622 656.346 262.622C640.466 262.872 627.676 275.812 627.676 291.732Z" stroke="#003049" stroke-width="10" stroke-linecap="round" stroke-linejoin="round"/>
<path d="M666.947 276.332C674.967 276.332 682.017 283.682 685.937 294.712V335.422C685.707 336.072 685.477 336.722 685.207 337.352C685.397 338.462 685.497 339.632 685.497 340.852C685.497 342.422 685.327 343.932 685.037 345.312L682.087 346.232C681.267 346.482 680.457 346.712 679.637 346.942C677.187 347.632 674.717 348.202 672.227 348.642C667.287 349.542 662.287 350.002 657.297 350.022C649.807 343.762 644.637 330.452 644.637 315.062C644.637 293.692 654.627 276.332 666.947 276.332Z" fill="#003049"/>
<path d="M523.176 291.732V337.712C523.176 342.032 526.066 345.822 530.226 346.982C537.616 349.032 545.216 350.042 552.796 350.022C562.076 349.992 571.626 347.822 577.016 346.352C579.626 345.642 581.436 343.262 581.436 340.552V291.742C581.436 266.252 556.956 263.022 552.886 262.662C552.546 262.632 552.196 262.622 551.846 262.622C535.966 262.872 523.176 275.812 523.176 291.732Z" stroke="#003049" stroke-width="10" stroke-linecap="round" stroke-linejoin="round"/>
<path d="M562.447 276.332C570.467 276.332 577.517 283.682 581.437 294.712V335.422C581.207 336.072 580.977 336.722 580.707 337.352C580.897 338.462 580.997 339.632 580.997 340.852C580.997 342.422 580.827 343.932 580.537 345.312L577.587 346.232C576.767 346.482 575.957 346.712 575.137 346.942C572.687 347.632 570.217 348.202 567.727 348.642C562.787 349.542 557.787 350.002 552.797 350.022C545.307 343.762 540.137 330.452 540.137 315.062C540.137 293.692 550.127 276.332 562.447 276.332Z" fill="#003049"/>
<path d="M375.156 758.262V659.892L71.6562 366.582C108.566 300.962 204.946 229.182 204.946 229.182L412.826 442.392C412.826 442.392 592.376 532.432 727.866 440.402L947.286 229.182C947.286 229.182 1043.67 300.952 1080.58 366.582L777.076 651.622V758.262H375.146" fill="#003049"/>
<path d="M375.156 758.262V659.892L71.6562 366.582C108.566 300.962 204.946 229.182 204.946 229.182L412.826 442.392C412.826 442.392 592.376 532.432 727.866 440.402L947.286 229.182C947.286 229.182 1043.67 300.952 1080.58 366.582L777.076 651.622V758.262H375.146" stroke="#003049" stroke-width="10" stroke-linecap="round" stroke-linejoin="round"/>
<path d="M156.663 580.082C204.464 580.082 243.213 541.332 243.213 493.532C243.213 445.732 204.464 406.982 156.663 406.982C108.863 406.982 70.1133 445.732 70.1133 493.532C70.1133 541.332 108.863 580.082 156.663 580.082Z" fill="white" stroke="#003049" stroke-width="10" stroke-linecap="round" stroke-linejoin="round"/>
<path d="M148.345 527.252C145.735 527.252 143.225 526.252 141.325 524.442L118.075 502.322C114.005 498.442 113.845 492.002 117.715 487.932C121.595 483.862 128.035 483.702 132.105 487.572L147.975 502.682L188.125 460.492C192.005 456.422 198.445 456.262 202.515 460.132C206.585 464.012 206.745 470.452 202.875 474.522L155.705 524.082C153.845 526.042 151.285 527.172 148.585 527.242C148.505 527.242 148.415 527.242 148.335 527.242L148.345 527.252Z" fill="#003049" stroke="#003049" stroke-width="10" stroke-linecap="round" stroke-linejoin="round"/>
<path d="M1135.89 500.742L1056.55 593.042C1053.04 597.112 1047.01 597.852 1042.62 594.742L990.833 557.922L930.473 616.552C928.753 618.222 926.003 618.182 924.333 616.472L916.553 608.492C914.503 606.382 914.543 603.012 916.653 600.962L982.543 536.962C986.143 533.462 991.733 533.032 995.823 535.942L1046.94 572.282L1120.12 487.152L1135.55 500.472L1135.87 500.752L1135.89 500.742Z" fill="#003049" stroke="#003049" stroke-width="10" stroke-linecap="round" stroke-linejoin="round"/>
<path d="M1135.89 500.752L1152.73 515.302C1154.27 516.622 1156.62 515.382 1156.4 513.382L1151.23 465.312C1151.1 464.092 1150.01 463.212 1148.79 463.322L1103.37 467.702C1101.41 467.892 1100.64 470.332 1102.13 471.612L1120.14 487.152" fill="#003049"/>
<path d="M1135.89 500.752L1152.73 515.302C1154.27 516.622 1156.62 515.382 1156.4 513.382L1151.23 465.312C1151.1 464.092 1150.01 463.212 1148.79 463.322L1103.37 467.702C1101.41 467.892 1100.64 470.332 1102.13 471.612L1120.14 487.152" stroke="#003049" stroke-width="10" stroke-linecap="round" stroke-linejoin="round"/>
<path d="M980.065 655.962H952.575C947.306 655.962 943.035 660.233 943.035 665.502V748.712C943.035 753.981 947.306 758.252 952.575 758.252H980.065C985.334 758.252 989.605 753.981 989.605 748.712V665.502C989.605 660.233 985.334 655.962 980.065 655.962Z" stroke="#003049" stroke-width="10" stroke-linecap="round" stroke-linejoin="round"/>
<path d="M1058.98 677.432H1031.49C1026.22 677.432 1021.95 681.703 1021.95 686.972V748.722C1021.95 753.99 1026.22 758.262 1031.49 758.262H1058.98C1064.24 758.262 1068.52 753.99 1068.52 748.722V686.972C1068.52 681.703 1064.24 677.432 1058.98 677.432Z" stroke="#003049" stroke-width="10" stroke-linecap="round" stroke-linejoin="round"/>
<path d="M1137.58 586.932H1110.71C1105.27 586.932 1100.86 591.342 1100.86 596.782V748.412C1100.86 753.852 1105.27 758.262 1110.71 758.262H1137.58C1143.02 758.262 1147.43 753.852 1147.43 748.412V596.782C1147.43 591.342 1143.02 586.932 1137.58 586.932Z" stroke="#003049" stroke-width="10" stroke-linecap="round" stroke-linejoin="round"/>
<path d="M810.582 41.0118L847.962 3.63184" stroke="#002E2C" stroke-width="10" stroke-linecap="round" stroke-linejoin="round"/>
<path d="M806.453 91.5118L889.963 35.3018" stroke="#002E2C" stroke-width="10" stroke-linecap="round" stroke-linejoin="round"/>
<path d="M321.224 41.0118L283.844 3.63184" stroke="#002E2C" stroke-width="10" stroke-linecap="round" stroke-linejoin="round"/>
<path d="M325.354 91.5118L241.844 35.3018" stroke="#002E2C" stroke-width="10" stroke-linecap="round" stroke-linejoin="round"/>
</g>
<defs>
<clipPath id="clip0_9_1195">
<rect width="1159.34" height="760.63" fill="white" transform="translate(0.0742188 0.631836)"/>
</clipPath>
</defs>
</svg>
