<svg width="2179" height="2060" viewBox="0 0 2179 2060" fill="none" xmlns="http://www.w3.org/2000/svg">
<g clip-path="url(#clip0_9_1332)">
<path d="M416.117 1381.83V1495.88C416.117 1495.88 519.634 1504.65 750.445 1500.45L724.27 1433.33L575.032 1366.08L416.132 1381.83H416.117Z" fill="#003049" stroke="#003049" stroke-width="14" stroke-miterlimit="10"/>
<path d="M600.183 1503.22C600.183 1503.22 656.469 1569.98 696.982 1540.22C696.982 1540.22 736.667 1564.19 761.451 1538.56C761.451 1538.56 823.448 1558.41 796.164 1499.71L735.823 1454.24C735.823 1454.24 787.907 1436.88 762.28 1407.96C736.652 1379.03 685.411 1336.04 641.599 1347.62C597.786 1359.19 600.183 1503.2 600.183 1503.2V1503.22Z" fill="white"/>
<path d="M529.708 885.268C529.708 885.268 809.496 1013.04 1001.95 885.268C1001.95 885.268 1111.94 979.078 1121.63 1097.14C1121.63 1097.14 1126.48 1061.55 1179.85 1014.66C1179.85 1014.66 1246.16 1098.77 1297.91 1118.17C1297.91 1118.17 1220.28 1279.89 1115.16 1291.21L697.9 1347.82L650.995 1339.73C650.995 1339.73 597.624 1412.51 600.865 1498.23C600.865 1498.23 361.501 1446.47 338.863 1218.44C338.863 1218.44 311.371 1008.2 529.708 885.283V885.268Z" fill="#003049"/>
<path d="M1001.45 556.918C1027.33 740.203 1000.98 885.194 1000.98 885.194C797.068 1010.96 535.599 885.194 535.599 885.194V751.3C499.851 751.3 470.879 722.329 470.879 686.58C470.879 650.832 499.851 621.845 535.599 621.845C552.038 621.845 567.027 627.956 578.45 638.048" stroke="#003049" stroke-width="14" stroke-linecap="round" stroke-linejoin="round"/>
<path d="M579.217 638.477C608.529 649.811 638.388 626.861 638.166 599.118C638.092 589.841 635.118 581.259 629.984 574.334C634.896 575.458 640.001 576.065 645.254 576.065C682.349 576.065 712.549 546.59 713.732 509.777C725.451 519.128 740.292 524.736 756.45 524.736C775.567 524.736 792.864 516.894 805.293 504.272C816.613 526.571 839.725 541.855 866.432 541.855C893.14 541.855 915.735 526.911 927.187 505.042C927.335 505.042 927.498 505.042 927.646 505.042C927.646 505.042 927.646 505.071 927.646 505.086M1020.15 700.741C1052.87 700.741 1079.4 674.21 1079.4 641.495C1079.4 617.658 1065.31 597.135 1045.03 587.725C1062.53 577.426 1074.28 558.413 1074.28 536.632C1074.28 505.944 1050.95 480.701 1021.04 477.683C1020.8 477.313 1020.55 476.928 1020.3 476.558C1033.72 465.698 1042.3 449.096 1042.3 430.497C1042.3 397.782 1015.77 371.251 983.059 371.251C967.049 371.251 952.534 377.614 941.865 387.927C941.495 387.853 941.125 387.764 940.756 387.705C952.267 375.439 959.325 358.955 959.325 340.815C959.325 302.965 928.637 272.277 890.788 272.277C867.365 272.277 846.694 284.041 834.339 301.959C820.844 276.953 794.403 259.967 763.996 259.967C728.292 259.967 698.063 283.404 687.838 315.72C673.456 301.796 653.88 293.214 632.292 293.214C588.184 293.214 552.421 328.978 552.421 373.086C552.421 386.625 555.809 399.38 561.757 410.566C556.164 409.086 550.29 408.302 544.238 408.302C506.389 408.302 475.701 438.99 475.701 476.839C475.701 484.134 476.855 491.148 478.956 497.732C478.941 497.762 478.926 497.777 478.911 497.806C441.106 497.865 410.492 528.524 410.492 566.344C410.492 592.4 425.037 615.069 446.463 626.669C428.662 631.389 415.553 647.606 415.553 666.886C415.553 686.166 428.248 701.85 445.619 706.866C436.445 718.526 430.956 733.219 430.956 749.199C430.956 787.049 461.644 817.737 499.493 817.737C512.707 817.737 525.047 813.993 535.508 807.527" stroke="#003049" stroke-width="14" stroke-linecap="round" stroke-linejoin="round"/>
<path d="M869.141 675.128V743.162C869.141 749.554 873.417 755.162 879.572 756.879C890.507 759.912 901.752 761.406 912.968 761.377C926.699 761.332 940.83 758.122 948.805 755.946C952.667 754.896 955.345 751.374 955.345 747.364V675.143C955.345 637.426 919.123 632.647 913.101 632.114C912.598 632.07 912.08 632.055 911.562 632.055C888.065 632.425 869.141 651.572 869.141 675.128Z" stroke="#003049" stroke-width="14" stroke-linecap="round" stroke-linejoin="round"/>
<path d="M927.245 652.326C939.112 652.326 949.544 663.202 955.344 679.522V739.759C955.004 740.721 954.663 741.683 954.264 742.615C954.545 744.257 954.693 745.988 954.693 747.794C954.693 750.117 954.441 752.351 954.012 754.393L949.647 755.754C948.434 756.124 947.236 756.464 946.022 756.805C942.397 757.826 938.742 758.669 935.058 759.32C927.748 760.652 920.35 761.332 912.967 761.362C901.884 752.099 894.234 732.405 894.234 709.633C894.234 678.013 909.016 652.326 927.245 652.326Z" fill="#003049"/>
<path d="M714.531 675.128V743.162C714.531 749.554 718.807 755.162 724.963 756.879C735.897 759.912 747.143 761.406 758.359 761.377C772.09 761.332 786.22 758.122 794.196 755.946C798.058 754.896 800.736 751.374 800.736 747.364V675.143C800.736 637.426 764.514 632.647 758.492 632.114C757.989 632.07 757.471 632.055 756.953 632.055C733.456 632.425 714.531 651.572 714.531 675.128Z" stroke="#003049" stroke-width="14" stroke-linecap="round" stroke-linejoin="round"/>
<path d="M772.636 652.326C784.503 652.326 794.934 663.202 800.735 679.522V739.759C800.394 740.721 800.054 741.683 799.654 742.615C799.936 744.257 800.084 745.988 800.084 747.794C800.084 750.117 799.832 752.351 799.403 754.393L795.038 755.754C793.825 756.124 792.626 756.464 791.413 756.805C787.788 757.826 784.133 758.669 780.449 759.32C773.139 760.652 765.741 761.332 758.357 761.362C747.275 752.099 739.625 732.405 739.625 709.633C739.625 678.013 754.407 652.326 772.636 652.326Z" fill="#003049"/>
<path d="M861.064 794.565C857.454 787.833 850.351 783.261 842.169 783.261C833.986 783.261 826.692 787.966 823.141 794.846" stroke="#003049" stroke-width="14" stroke-linecap="round" stroke-linejoin="round"/>
<path d="M903.424 825.801C891.247 839.562 866.699 848.943 838.408 848.913C798.088 848.883 774.843 827.192 773.984 826.245" stroke="#003049" stroke-width="14" stroke-linecap="round" stroke-linejoin="round"/>
<path d="M1746.28 949.367C1749.89 942.634 1756.99 938.062 1765.18 938.062C1773.36 938.062 1780.65 942.767 1784.2 949.648" stroke="#003049" stroke-width="14" stroke-linecap="round" stroke-linejoin="round"/>
<path d="M535.877 881.539C535.877 881.539 411.231 940.711 358.748 1077.36C310.23 1203.67 351.172 1346.19 457.811 1429.5C493.766 1457.58 540.272 1483.89 600.198 1503.22C600.198 1503.22 586.955 1412.1 656.41 1341.31C656.41 1341.31 521.51 1291.89 560.247 1155.66" stroke="#003049" stroke-width="14" stroke-linecap="round" stroke-linejoin="round"/>
<path d="M457.797 1429.5C492.524 1456.64 537.447 1482.04 595.331 1500.72" stroke="white" stroke-width="14" stroke-linecap="round" stroke-linejoin="round"/>
<path d="M1135.7 1062.78C1147.58 1047.91 1163.68 1029.74 1182.75 1013.18C1182.75 1013.18 1227.91 1086.99 1299.51 1117.83C1299.51 1117.83 1223.07 1260.45 1135.7 1283.68" stroke="#003049" stroke-width="14" stroke-linecap="round" stroke-linejoin="round"/>
<path d="M999.914 883.211C999.914 883.211 1054.13 928.119 1087.64 996.701" stroke="#003049" stroke-width="14" stroke-linecap="round" stroke-linejoin="round"/>
<path d="M1182.75 1013.18C1182.75 1013.18 1163.09 884.573 1223.73 868.341C1223.73 868.341 1261.62 865.085 1243.21 959.295C1243.21 959.295 1301.67 867.261 1348.24 873.756C1348.24 873.756 1382.89 884.587 1344.98 925.722L1307.09 966.871" stroke="#003049" stroke-width="14" stroke-linecap="round" stroke-linejoin="round"/>
<path d="M1345 925.722C1345 925.722 1374.24 887.828 1399.14 902.979C1424.04 918.131 1341.76 1002.59 1341.76 1002.59" stroke="#003049" stroke-width="14" stroke-linecap="round" stroke-linejoin="round"/>
<path d="M1372.03 967.019C1372.03 967.019 1401.27 936.701 1415.34 956.188C1429.41 975.675 1386.13 1078.21 1299.51 1117.83" stroke="#003049" stroke-width="14" stroke-linecap="round" stroke-linejoin="round"/>
<path d="M694.75 1353.93V1054.21C694.75 1040.37 705.359 1028.84 719.149 1027.67L1106.83 995.088C1122.37 993.786 1135.7 1006.04 1135.7 1021.62V1389.15L768.94 1419.99" fill="white"/>
<path d="M694.75 1353.93V1054.21C694.75 1040.37 705.359 1028.84 719.149 1027.67L1106.83 995.088C1122.37 993.786 1135.7 1006.04 1135.7 1021.62V1389.15L768.94 1419.99" stroke="#003049" stroke-width="14" stroke-linecap="round" stroke-linejoin="round"/>
<path d="M734.73 1449.76C745.532 1449.49 755.919 1446.06 764.294 1437.27C769.029 1432.3 770.301 1426.39 768.94 1419.99L1135.7 1389.15L1372.92 1528.75C1372.92 1528.75 1372.92 1528.81 1372.9 1528.81L940.506 1565.17L932.057 1565.88L924.792 1561.6C924.792 1561.6 924.777 1561.59 924.762 1561.59" stroke="#003049" stroke-width="14" stroke-linecap="round" stroke-linejoin="round"/>
<path d="M734.73 1449.76C720.91 1450.13 706.439 1445.3 694.75 1439.93" stroke="#003049" stroke-width="14" stroke-linecap="round" stroke-linejoin="round"/>
<path d="M803.785 1522.5L924.762 1593.7C929.511 1596.48 935.001 1597.74 940.505 1597.28L1348.61 1562.96C1362.4 1561.81 1373.01 1550.27 1373.01 1536.43V1528.81L940.505 1565.17C935.016 1565.63 929.541 1564.38 924.791 1561.6C924.776 1561.6 924.776 1561.59 924.762 1561.59L830.005 1505.17" stroke="#003049" stroke-width="14" stroke-linecap="round" stroke-linejoin="round"/>
<path d="M917.924 1335.91C983.945 1335.91 1037.47 1282 1037.47 1215.5C1037.47 1148.99 983.945 1095.08 917.924 1095.08C851.903 1095.08 798.383 1148.99 798.383 1215.5C798.383 1282 851.903 1335.91 917.924 1335.91Z" stroke="#003049" stroke-width="14" stroke-linecap="round" stroke-linejoin="round"/>
<path d="M911.222 1276.15C907.346 1276.15 903.543 1274.88 900.421 1272.48L854.685 1237.43C846.902 1231.46 845.437 1220.31 851.4 1212.54C857.363 1204.75 868.505 1203.28 876.288 1209.25L906.961 1232.76L954.369 1161.67C959.814 1153.5 970.837 1151.31 978.99 1156.74C987.143 1162.19 989.348 1173.21 983.918 1181.36L925.989 1268.25C923.267 1272.33 918.961 1275.11 914.122 1275.91C913.161 1276.07 912.184 1276.15 911.222 1276.15Z" fill="#003049"/>
<path d="M670.618 1426.17C670.618 1426.17 680.665 1433.45 694.751 1439.93C706.44 1445.3 720.911 1450.13 734.731 1449.76C745.533 1449.49 755.92 1446.06 764.295 1437.27C769.03 1432.3 770.302 1426.39 768.941 1419.99C764.25 1397.94 728.28 1369.99 694.751 1353.93C680.709 1347.22 667.111 1342.57 656.398 1341.31" stroke="#003049" stroke-width="14" stroke-linecap="round" stroke-linejoin="round"/>
<path d="M679.582 1482.83C679.582 1482.83 734.522 1546.17 784.815 1540.9C803.577 1538.93 810.798 1515.32 796.489 1503.01C796.267 1502.82 796.046 1502.64 795.824 1502.45C773.303 1483.55 731.888 1450.14 731.888 1450.14" stroke="#003049" stroke-width="14" stroke-linecap="round" stroke-linejoin="round"/>
<path d="M657.938 1510.38C657.938 1510.38 725.913 1573.11 763.17 1539.73" stroke="#003049" stroke-width="14" stroke-linecap="round" stroke-linejoin="round"/>
<path d="M700.639 1540.12C655.465 1568.73 603.219 1504.56 603.219 1504.56" stroke="#003049" stroke-width="14" stroke-linecap="round" stroke-linejoin="round"/>
<path d="M2074.25 975.453C2168.68 957.742 2245.4 639.069 2003.43 503.325C1761.46 367.582 1619.83 572.174 1619.83 572.174C1545.08 572.174 1543.11 639.054 1543.11 639.054C1552.95 816.109 1887.37 670.526 1887.37 670.526C1887.37 670.526 1918.62 830.654 2028.89 805.663C2043.75 802.304 2055.31 789.461 2071.73 789.461C2107.48 789.461 2136.47 818.447 2136.47 854.195C2136.47 889.944 2107.48 918.93 2071.73 918.93V1052.81C2071.73 1052.81 1810.26 1178.58 1606.35 1052.81C1606.35 1052.81 1579.67 906.072 1606.35 721.219" stroke="#003049" stroke-width="14" stroke-linecap="round" stroke-linejoin="round"/>
<path d="M2071.72 1052.82C2071.72 1052.82 2191.55 1121.69 2171.76 1484.53C2171.76 1484.53 2080.65 1509.58 1982.71 1484.53C1982.71 1484.53 1994.11 1375.21 1969.04 1295.49" stroke="#003049" stroke-width="14" stroke-linecap="round" stroke-linejoin="round"/>
<path d="M1560.14 1493.85C1560.14 1493.85 1562.54 1384.3 1573.81 1304.81" stroke="#003049" stroke-width="14" stroke-linecap="round" stroke-linejoin="round"/>
<path d="M1606.35 1052.82C1606.35 1052.82 1491.59 1086.49 1483.3 1479.96C1483.3 1479.96 1480.5 1494.46 1561.26 1492.38C1561.26 1492.38 1759.39 1532.59 1982.71 1484.53" stroke="#003049" stroke-width="14" stroke-linecap="round" stroke-linejoin="round"/>
<path d="M2017.72 1550.11C2017.72 1550.11 1999.4 1645.16 2047.49 1644.58C2047.49 1644.58 2065.81 1646.3 2074.98 1631.41" stroke="#003049" stroke-width="14" stroke-linecap="round" stroke-linejoin="round"/>
<path d="M2057.81 1548.83C2057.81 1548.83 2051.47 1645.43 2099.13 1638.86C2099.13 1638.86 2116.42 1638.31 2124.08 1623.75" stroke="#003049" stroke-width="14" stroke-linecap="round" stroke-linejoin="round"/>
<path d="M2018.3 1618.82H2017.94C1945.77 1621.78 1996.24 1493.11 1997.88 1488.92" stroke="#003049" stroke-width="14" stroke-linecap="round" stroke-linejoin="round"/>
<path d="M2158.81 1488.02C2171.9 1522.81 2186.8 1623.75 2142.03 1626.97C2134.91 1627.48 2129.01 1626.25 2124.08 1623.75C2094.53 1608.67 2100.17 1548.32 2100.17 1548.32" stroke="#003049" stroke-width="14" stroke-linecap="round" stroke-linejoin="round"/>
<path d="M1520.09 1551.3C1520.09 1551.3 1501.77 1646.36 1549.86 1645.78C1549.86 1645.78 1554.21 1646.18 1559.73 1644.89" stroke="#003049" stroke-width="14" stroke-linecap="round" stroke-linejoin="round"/>
<path d="M1520.66 1620.02H1520.31C1448.13 1622.98 1498.6 1494.31 1500.24 1490.12" stroke="#003049" stroke-width="14" stroke-linecap="round" stroke-linejoin="round"/>
<path d="M1768.7 1587.84C1796.63 1601.8 1839.6 1603.95 1839.6 1603.95C1834.23 1642.63 1839.6 1883.26 1839.6 1883.26C1839.32 1883.34 1839.06 1883.4 1838.77 1883.46C1833.97 1884.64 1829.11 1885.72 1824.24 1886.71C1782.92 1895.18 1739.62 1897.57 1700.31 1897.04H1700.13C1667.76 1896.58 1638.07 1894.14 1614.44 1891.43C1614.41 1891.43 1614.39 1891.42 1614.36 1891.42C1613.63 1891.34 1612.92 1891.25 1612.21 1891.18C1580.13 1887.42 1559.73 1883.26 1559.73 1883.26V1492.25" stroke="#003049" stroke-width="14" stroke-linecap="round" stroke-linejoin="round"/>
<path d="M2117.84 1631.8V1883.28C2117.84 1883.28 1964.71 1914.43 1837.95 1883.28" stroke="#003049" stroke-width="14" stroke-linecap="round" stroke-linejoin="round"/>
<path d="M1814.68 2039.06C1807.06 2044.25 1798.17 2047.51 1788.51 2048.11C1706.55 2053.26 1619.18 2050.51 1568.51 2045.18C1537.28 2041.91 1514.17 2014.23 1517.15 1982.96C1523.46 1917.22 1607.62 1892.47 1612.21 1891.17C1612.34 1891.12 1612.4 1891.11 1612.4 1891.11C1613.05 1891.21 1613.7 1891.3 1614.35 1891.4C1642.84 1895.75 1672.34 1897.19 1700.13 1897.03C1755.35 1896.69 1803.75 1889.98 1823.72 1886.79C1823.78 1886.79 1823.84 1886.76 1823.89 1886.76C1830.06 1885.77 1833.46 1885.13 1833.46 1885.13C1835.56 1891.52 1837.23 1898.24 1838.54 1905.15" stroke="#003049" stroke-width="14" stroke-linecap="round" stroke-linejoin="round"/>
<path d="M1864.55 1889.38C1864.55 1889.38 1798.26 1917.16 1791.78 1984.75C1788.79 2016 1811.37 2047.61 1842.61 2050.88C1893.3 2056.19 1981.04 2058.04 2063.15 2049.9C2090.6 2047.18 2112.1 2024.82 2114.92 1997.39C2118.25 1965.09 2118.9 1919.75 2107.6 1885.35C2107.6 1885.35 1968.76 1903.25 1864.57 1889.38H1864.55Z" stroke="#003049" stroke-width="14" stroke-linecap="round" stroke-linejoin="round"/>
<path d="M1510.96 271.863C1489.06 271.863 1470.83 255.054 1469.07 233.215L1454.32 50.6105C1452.33 26.137 1471.66 5.19995 1496.2 5.19995H1529.82C1554.74 5.19995 1574.2 26.7585 1571.62 51.5427L1552.76 234.147C1550.54 255.572 1532.49 271.863 1510.96 271.863Z" stroke="#003049" stroke-width="14" stroke-linecap="round" stroke-linejoin="round"/>
<path d="M1513.01 423.661C1542.83 423.661 1567 399.487 1567 369.668C1567 339.849 1542.83 315.676 1513.01 315.676C1483.19 315.676 1459.02 339.849 1459.02 369.668C1459.02 399.487 1483.19 423.661 1513.01 423.661Z" stroke="#003049" stroke-width="14" stroke-linecap="round" stroke-linejoin="round"/>
<path d="M927.66 505.056C927.66 505.056 954.782 566.284 1021.23 555.853" stroke="#003049" stroke-width="14" stroke-linecap="round" stroke-linejoin="round"/>
<path d="M656.399 1341.31C656.399 1341.31 521.499 1291.89 560.236 1155.66" stroke="white" stroke-width="14" stroke-linecap="round" stroke-linejoin="round"/>
<path d="M447.498 1495.21H5.21484" stroke="#003049" stroke-width="14" stroke-linecap="round" stroke-linejoin="round"/>
<path d="M2074.25 975.453C2168.68 957.742 2245.4 639.069 2003.43 503.325C1761.46 367.582 1619.83 572.174 1619.83 572.174C1545.08 572.174 1543.11 639.054 1543.11 639.054C1552.95 816.109 1887.37 670.526 1887.37 670.526C1887.37 670.526 1918.62 830.654 2028.89 805.663C2043.75 802.304 2055.31 789.461 2071.73 789.461C2107.48 789.461 2136.47 818.447 2136.47 854.195C2136.47 889.944 2107.48 918.93 2071.73 918.93V1052.81" fill="#003049"/>
<path d="M1679.18 825.386L1679.56 825.268C1686.58 813.268 1699.35 805.248 1713.54 806.018C1731.74 807.009 1745.13 821.199 1745.87 839.251C1746.74 860.854 1738.45 873.889 1723.51 888.065C1713.8 897.268 1703.12 905.746 1693.15 914.698C1691.36 916.296 1689.59 917.924 1687.82 919.552C1683.05 923.976 1675.7 924.02 1670.92 919.611C1668.6 917.465 1666.26 915.32 1663.91 913.204C1655.25 905.465 1646.17 898.171 1637.64 890.299C1622.21 876.065 1613.47 864.878 1612.86 842.817C1612.33 823.167 1625.23 807.024 1645.37 806.018C1659.47 805.322 1672.34 813.386 1679.18 825.401V825.386Z" fill="#003049"/>
<path d="M1646.94 873.179C1637.96 864.893 1632.87 858.383 1632.52 845.554C1632.21 834.116 1639.72 824.721 1651.43 824.144" stroke="white" stroke-width="14" stroke-linecap="round" stroke-linejoin="round"/>
<path d="M1861.77 823.389L1862.15 823.271C1869.17 811.271 1881.94 803.251 1896.12 804.02C1914.32 805.012 1927.72 819.202 1928.46 837.253C1929.33 858.856 1921.04 871.892 1906.1 886.067C1896.39 895.271 1885.71 903.749 1875.74 912.701C1873.95 914.299 1872.18 915.927 1870.41 917.554C1865.64 921.978 1858.29 922.023 1853.51 917.613C1851.19 915.468 1848.85 913.322 1846.5 911.206C1837.84 903.468 1828.76 896.173 1820.23 888.301C1804.8 874.067 1796.06 862.881 1795.45 840.819C1794.92 821.17 1807.82 805.027 1827.96 804.02C1842.06 803.325 1854.93 811.389 1861.77 823.404V823.389Z" fill="#003049"/>
<path d="M1827.93 869.865C1818.95 861.579 1813.86 855.068 1813.52 842.24C1813.21 830.802 1820.71 821.406 1832.43 820.829" stroke="white" stroke-width="14" stroke-linecap="round" stroke-linejoin="round"/>
<path d="M1761.25 1000.41C1761.25 1000.41 1805.66 1002.29 1857.73 970.57C1857.73 970.57 1875.04 1027.82 1827.31 1044.32C1779.57 1060.8 1761.25 1000.41 1761.25 1000.41Z" stroke="#003049" stroke-width="14" stroke-linecap="round" stroke-linejoin="round"/>
</g>
<defs>
<clipPath id="clip0_9_1332">
<rect width="2177.64" height="2059.11" fill="white" transform="translate(0.777344 0.760986)"/>
</clipPath>
</defs>
</svg>
