<svg width="1206" height="880" viewBox="0 0 1206 880" fill="none" xmlns="http://www.w3.org/2000/svg">
<g clip-path="url(#clip0_9_1219)">
<path d="M1168.17 50.6763H833.822C814.774 50.6763 799.332 66.118 799.332 85.1663V683.856C799.332 702.905 814.774 718.346 833.822 718.346H1168.17C1187.22 718.346 1202.66 702.905 1202.66 683.856V85.1663C1202.66 66.118 1187.22 50.6763 1168.17 50.6763Z" stroke="#003049" stroke-width="10" stroke-linecap="round" stroke-linejoin="round"/>
<path d="M692.332 388.976V38.3562C692.332 19.3062 707.772 3.86621 726.822 3.86621H1061.16C1080.21 3.86621 1095.65 19.3062 1095.65 38.3562V637.046C1095.65 656.096 1080.21 671.536 1061.16 671.536H726.822C707.772 671.536 692.332 656.096 692.332 637.046V547.246" fill="white"/>
<path d="M692.332 388.976V38.3562C692.332 19.3062 707.772 3.86621 726.822 3.86621H1061.16C1080.21 3.86621 1095.65 19.3062 1095.65 38.3562V637.046C1095.65 656.096 1080.21 671.536 1061.16 671.536H726.822C707.772 671.536 692.332 656.096 692.332 637.046V547.246" stroke="#003049" stroke-width="10" stroke-linecap="round" stroke-linejoin="round"/>
<path d="M524.223 637.716H53.373V834.816H524.223V637.716Z" fill="#003049"/>
<path d="M55.6914 755.796V832.876C55.6914 832.876 125.651 838.806 281.641 835.966L263.951 790.606L163.091 745.156L55.7014 755.796H55.6914Z" fill="#003049" stroke="#003049" stroke-width="10" stroke-miterlimit="10"/>
<path d="M651.642 577.606C651.642 577.606 650.252 580.496 647.612 585.376C634.482 609.726 590.462 683.396 533.612 693.756C531.802 694.086 529.972 694.356 528.132 694.556L246.132 732.816L214.432 727.346C214.432 727.346 178.362 776.536 180.552 834.466C180.552 834.466 18.7818 799.486 3.48185 645.366C3.48185 645.366 -10.2682 540.176 79.8718 457.906C79.9618 457.806 80.0618 457.726 80.1618 457.636C94.7218 444.376 111.992 431.726 132.452 420.206C132.452 420.206 144.962 426.276 165.852 433.546C220.482 452.546 332.432 479.806 428.192 428.586C429.362 427.966 430.532 427.326 431.692 426.686C431.742 426.666 431.782 426.636 431.832 426.606V458.756H478.842C478.572 458.406 478.292 458.066 478.022 457.716H481.002C481.262 458.056 481.522 458.406 481.772 458.756C501.132 484.966 521.812 521.616 525.522 562.026C525.562 562.486 525.602 562.936 525.642 563.396C525.642 563.396 530.312 557.526 537.992 548.126C546.402 537.836 558.422 523.316 571.852 507.646C571.852 507.646 572.042 507.886 572.412 508.346C574.522 510.976 582.492 520.746 593.392 532.266C601.072 540.386 610.212 549.386 619.782 557.376C619.842 557.426 619.912 557.486 619.982 557.536C630.472 566.276 641.472 573.796 651.642 577.606Z" fill="#003049"/>
<path d="M136.633 417.676C136.633 417.676 52.3925 457.666 16.9225 550.016C-15.8675 635.386 11.8025 731.706 83.8725 788.006C108.173 806.986 139.603 824.766 180.103 837.826C180.103 837.826 171.153 776.246 218.093 728.406C218.093 728.406 126.923 695.006 153.103 602.936" stroke="#003049" stroke-width="10" stroke-linecap="round" stroke-linejoin="round"/>
<path d="M83.8613 788.016C107.331 806.356 137.691 823.526 176.811 836.146" stroke="white" stroke-width="10" stroke-linecap="round" stroke-linejoin="round"/>
<path d="M518.181 697.856C518.591 697.746 533.201 693.866 533.611 693.746C582.131 679.886 631.851 609.366 647.611 585.376C650.911 580.346 652.721 577.366 652.721 577.366C640.631 572.156 629.651 565.136 619.981 557.526C619.911 557.476 619.841 557.416 619.781 557.366C609.361 549.146 600.482 540.256 593.392 532.256C580.792 518.056 573.811 506.646 573.811 506.646C573.351 507.206 572.891 507.766 572.411 508.336C561.911 521.066 548.111 536.756 537.991 548.116C532.201 554.616 527.612 559.696 525.522 562.016C524.712 562.906 524.272 563.386 524.272 563.386C517.562 517.696 497.991 482.936 478.841 458.746C478.571 458.396 478.291 458.056 478.021 457.706" stroke="#003049" stroke-width="10" stroke-linecap="round" stroke-linejoin="round"/>
<path d="M573.813 506.646C573.813 506.646 567.683 444.216 587.933 416.716C595.773 406.066 613.253 411.726 616.453 424.556C618.713 433.616 619.043 447.856 614.673 470.216C614.673 470.216 673.243 392.236 706.923 384.026C712.043 382.776 717.543 383.926 721.373 387.546C724.383 390.396 726.623 394.866 723.533 401.386C715.643 418.006 689.863 440.576 683.463 447.526" stroke="#003049" stroke-width="10" stroke-linecap="round" stroke-linejoin="round"/>
<path d="M718.173 509.306C705.283 536.216 679.393 565.186 652.723 577.376" stroke="#003049" stroke-width="10" stroke-linecap="round" stroke-linejoin="round"/>
<path d="M218.081 728.416C218.081 728.416 126.911 695.016 153.091 602.946" stroke="white" stroke-width="10" stroke-linecap="round" stroke-linejoin="round"/>
<path d="M684.031 446.986C683.621 447.376 683.201 447.746 682.761 448.106C677.501 452.456 644.531 480.906 662.111 496.406C678.231 510.636 703.591 479.126 711.011 469.076C713.401 465.846 715.061 462.116 715.661 458.146C716.451 453.016 715.751 446.486 709.191 442.016C698.361 434.636 686.701 444.456 684.021 446.976L684.031 446.986Z" stroke="#003049" stroke-width="10" stroke-linecap="round" stroke-linejoin="round"/>
<path d="M705.103 476.236C704.743 476.566 704.383 476.896 704.003 477.206C699.443 480.976 670.863 505.636 686.103 519.076C700.083 531.406 722.053 504.096 728.493 495.386C730.563 492.586 732.003 489.356 732.523 485.916C733.203 481.466 732.603 475.806 726.923 471.936C717.533 465.536 707.433 474.056 705.103 476.236Z" stroke="#003049" stroke-width="10" stroke-linecap="round" stroke-linejoin="round"/>
<path d="M282.913 856.356C282.913 856.356 310.603 869.356 319.083 848.446C327.563 827.536 277.833 790.806 258.053 786.286" fill="white"/>
<path d="M310.042 837.706C310.042 837.706 333.212 840.536 332.082 817.926C330.952 795.316 297.042 755.766 237.712 751.806C237.712 751.806 204.932 751.806 186.852 784.016C186.852 784.016 152.382 833.176 195.892 852.956C195.892 852.956 207.762 856.346 234.322 857.476C234.322 857.476 245.062 859.736 255.232 869.346C265.402 878.956 291.402 881.216 291.962 864.826C292.532 848.436 262.012 819.616 237.712 814.526" fill="white"/>
<path d="M260.992 786.376C277.522 790.156 314.962 816.426 321.882 837.166C323.242 841.236 323.412 845.106 322.022 848.546C316.512 862.126 302.892 861.396 294.032 859.226" stroke="#003049" stroke-width="10" stroke-linecap="round" stroke-linejoin="round"/>
<path d="M240.642 814.626C262.332 819.166 288.942 842.596 294.032 859.216C294.652 861.236 294.952 863.146 294.892 864.916C294.322 881.306 268.332 879.046 258.152 869.436C247.982 859.826 237.242 857.566 237.242 857.566C210.682 856.436 198.812 853.046 198.812 853.046C155.302 833.266 189.772 784.106 189.772 784.106C207.862 751.886 240.632 751.886 240.632 751.886C299.972 755.846 333.882 795.406 335.012 818.006C335.662 831.016 328.272 835.596 321.872 837.156" stroke="#003049" stroke-width="10" stroke-linecap="round" stroke-linejoin="round"/>
<path d="M614.672 470.226C614.672 470.226 644.442 488.966 631.942 518.126" stroke="#003049" stroke-width="10" stroke-linecap="round" stroke-linejoin="round"/>
<path d="M794.002 165.016C824.886 165.016 849.922 139.98 849.922 109.096C849.922 78.2125 824.886 53.1763 794.002 53.1763C763.118 53.1763 738.082 78.2125 738.082 109.096C738.082 139.98 763.118 165.016 794.002 165.016Z" stroke="#003049" stroke-width="10" stroke-linecap="round" stroke-linejoin="round"/>
<path d="M1000.16 551.476H774.142C757.827 551.476 744.602 564.702 744.602 581.016C744.602 597.331 757.827 610.556 774.142 610.556H1000.16C1016.48 610.556 1029.7 597.331 1029.7 581.016C1029.7 564.702 1016.48 551.476 1000.16 551.476Z" fill="#003049"/>
<path d="M758.662 346.526L769.912 357.776L789.492 338.196" stroke="#003049" stroke-width="10" stroke-linecap="round" stroke-linejoin="round"/>
<path d="M758.662 404.276L769.912 415.526L789.492 395.946" stroke="#003049" stroke-width="10" stroke-linecap="round" stroke-linejoin="round"/>
<path d="M758.662 462.026L769.912 473.276L789.492 453.706" stroke="#003049" stroke-width="10" stroke-linecap="round" stroke-linejoin="round"/>
<path d="M820.602 346.076H1008.32" stroke="#003049" stroke-width="10" stroke-linecap="round" stroke-linejoin="round"/>
<path d="M820.602 404.556H1008.32" stroke="#003049" stroke-width="10" stroke-linecap="round" stroke-linejoin="round"/>
<path d="M820.602 464.506H1008.32" stroke="#003049" stroke-width="10" stroke-linecap="round" stroke-linejoin="round"/>
<path d="M1001.41 207.486H768.833C763.155 207.486 758.553 212.089 758.553 217.766V235.886C758.553 241.564 763.155 246.166 768.833 246.166H1001.41C1007.09 246.166 1011.69 241.564 1011.69 235.886V217.766C1011.69 212.089 1007.09 207.486 1001.41 207.486Z" fill="white" stroke="#003049" stroke-width="10" stroke-linecap="round" stroke-linejoin="round"/>
<path d="M793.291 76.8262V142.946V76.8262Z" fill="white"/>
<path d="M793.291 76.8262V142.946" stroke="#003049" stroke-width="10" stroke-linecap="round" stroke-linejoin="round"/>
<path d="M808.322 88.8462H785.782C782.992 88.8462 780.312 89.9562 778.342 91.9262C776.372 93.8962 775.262 96.5762 775.262 99.3662C775.262 102.156 776.372 104.836 778.342 106.806C780.312 108.776 782.992 109.886 785.782 109.886H800.812C803.602 109.886 806.282 110.996 808.252 112.966C810.222 114.936 811.332 117.616 811.332 120.406C811.332 123.196 810.222 125.876 808.252 127.846C806.282 129.816 803.602 130.926 800.812 130.926H775.262" fill="white"/>
<path d="M808.322 88.8462H785.782C782.992 88.8462 780.312 89.9562 778.342 91.9262C776.372 93.8962 775.262 96.5762 775.262 99.3662C775.262 102.156 776.372 104.836 778.342 106.806C780.312 108.776 782.992 109.886 785.782 109.886H800.812C803.602 109.886 806.282 110.996 808.252 112.966C810.222 114.936 811.332 117.616 811.332 120.406C811.332 123.196 810.222 125.876 808.252 127.846C806.282 129.816 803.602 130.926 800.812 130.926H775.262" stroke="#003049" stroke-width="10" stroke-linecap="round" stroke-linejoin="round"/>
<path d="M505.753 433.166V433.546C505.753 433.626 505.753 433.706 505.753 433.786C505.753 433.936 505.753 434.076 505.743 434.226C505.373 446.616 504.843 454.926 504.653 457.716C504.603 458.406 504.573 458.756 504.573 458.756H478.853C478.583 458.406 478.303 458.066 478.033 457.716H481.013C462.743 433.206 445.863 418.106 445.863 418.106C444.263 419.156 442.653 420.186 441.043 421.176C437.993 423.076 434.933 424.876 431.843 426.606V426.236C430.663 427.036 429.443 427.826 428.203 428.586C393.043 450.436 336.593 459.546 330.653 460.456C330.643 460.466 330.623 460.466 330.613 460.466C330.293 460.516 330.133 460.536 330.133 460.536C271.383 466.526 216.693 454.166 187.403 445.506C187.373 445.496 187.343 445.486 187.313 445.476C176.013 442.136 168.503 439.356 166.033 438.416C165.443 438.186 165.143 438.066 165.143 438.066V456.986L104.583 457.636L79.8826 457.906L62.6526 458.086C62.6426 457.936 62.6326 457.786 62.6326 457.636C59.7926 401.306 62.7026 353.476 68.4126 313.746C68.4426 313.636 68.4526 313.516 68.4626 313.396C81.3526 224.026 108.403 175.666 115.993 163.506C116.023 163.446 116.053 163.396 116.093 163.336C117.323 161.386 118.013 160.416 118.013 160.416C120.373 156.336 122.803 152.446 125.283 148.736C125.623 148.206 125.993 147.676 126.353 147.156C126.653 146.716 126.963 146.266 127.273 145.826C135.903 133.376 145.133 123.046 154.623 114.516C155.063 114.116 155.503 113.716 155.953 113.316C156.843 112.526 157.743 111.736 158.653 110.966C159.563 110.196 160.473 109.426 161.403 108.676C173.943 98.5564 186.773 91.3164 199.133 86.1664C199.893 85.8464 200.663 85.5364 201.433 85.2364C202.143 84.9564 202.863 84.6864 203.573 84.4164C244.453 68.8564 279.103 75.6364 279.103 75.6364C279.333 75.7064 279.563 75.7764 279.793 75.8464C279.793 75.8464 279.813 75.8464 279.823 75.8564C279.843 75.8564 279.863 75.8564 279.883 75.8664C293.023 79.8264 303.053 76.8664 303.053 76.8664C303.983 76.6164 304.913 76.3664 305.843 76.1464C305.863 76.1364 305.893 76.1364 305.913 76.1264C345.243 66.7364 383.743 86.4964 387.513 88.5064C387.553 88.5364 387.603 88.5564 387.643 88.5764C387.693 88.6164 387.753 88.6364 387.813 88.6664C417.233 102.336 439.453 126.506 456.193 156.186C456.273 156.306 456.333 156.416 456.393 156.536C468.583 178.226 477.863 202.866 484.923 228.476C484.923 228.476 484.953 228.596 485.013 228.846C485.043 228.936 485.073 229.056 485.103 229.196C485.133 229.326 485.173 229.486 485.223 229.656C506.073 306.386 506.913 391.616 505.763 433.166H505.753Z" fill="white"/>
<path d="M166.863 439.727C301.383 479.847 378.323 459.597 432.253 426.337C432.253 426.337 432.293 426.107 432.373 425.667C433.883 416.867 449.223 322.397 432.573 204.477" stroke="#003049" stroke-width="10" stroke-linecap="round" stroke-linejoin="round"/>
<path d="M343.152 284.366V330.346C343.152 334.666 346.042 338.456 350.202 339.616C357.592 341.666 365.192 342.676 372.772 342.656C382.052 342.626 391.602 340.456 396.992 338.986C399.602 338.276 401.412 335.896 401.412 333.186V284.376C401.412 258.886 376.932 255.656 372.862 255.296C372.522 255.266 372.172 255.256 371.822 255.256C355.942 255.506 343.152 268.446 343.152 284.366Z" stroke="#003049" stroke-width="10" stroke-linecap="round" stroke-linejoin="round"/>
<path d="M382.423 268.957C390.443 268.957 397.493 276.307 401.413 287.337V328.047C401.183 328.697 400.953 329.347 400.683 329.977C400.873 331.087 400.973 332.257 400.973 333.477C400.973 335.047 400.803 336.557 400.513 337.937L397.563 338.857C396.743 339.107 395.933 339.337 395.113 339.567C392.663 340.257 390.193 340.827 387.703 341.267C382.763 342.167 377.763 342.627 372.773 342.647C365.283 336.387 360.113 323.077 360.113 307.687C360.113 286.317 370.103 268.957 382.423 268.957Z" fill="#003049"/>
<path d="M238.662 284.366V330.346C238.662 334.666 241.552 338.456 245.712 339.616C253.102 341.666 260.702 342.676 268.282 342.656C277.562 342.626 287.112 340.456 292.502 338.986C295.112 338.276 296.922 335.896 296.922 333.186V284.376C296.922 258.886 272.442 255.656 268.372 255.296C268.032 255.266 267.682 255.256 267.332 255.256C251.452 255.506 238.662 268.446 238.662 284.366Z" stroke="#003049" stroke-width="10" stroke-linecap="round" stroke-linejoin="round"/>
<path d="M277.933 268.957C285.953 268.957 293.003 276.307 296.923 287.337V328.047C296.693 328.697 296.463 329.347 296.193 329.977C296.383 331.087 296.483 332.257 296.483 333.477C296.483 335.047 296.313 336.557 296.023 337.937L293.073 338.857C292.253 339.107 291.443 339.337 290.623 339.567C288.173 340.257 285.703 340.827 283.213 341.267C278.273 342.167 273.273 342.627 268.283 342.647C260.793 336.387 255.623 323.077 255.623 307.687C255.623 286.317 265.613 268.957 277.933 268.957Z" fill="#003049"/>
<path d="M337.683 365.086C335.243 360.536 330.443 357.446 324.913 357.446C319.313 357.446 314.453 360.626 312.053 365.276" stroke="#003049" stroke-width="10" stroke-linecap="round" stroke-linejoin="round"/>
<path d="M366.322 386.196C358.092 395.496 341.502 401.836 322.382 401.816C295.132 401.796 279.422 387.136 278.842 386.496" stroke="#003049" stroke-width="10" stroke-linecap="round" stroke-linejoin="round"/>
<path d="M216.233 117.526C216.233 117.526 156.423 142.156 165.853 433.546C165.903 435.156 165.963 436.786 166.023 438.416C166.223 444.526 166.473 450.746 166.743 457.086C166.743 457.256 166.753 457.446 166.763 457.636H60.4026C60.4026 457.636 56.7326 391.246 68.4026 313.746C68.4326 313.636 68.4426 313.516 68.4526 313.396C76.0826 263.036 90.1826 208.016 115.983 163.506C116.013 163.446 116.043 163.396 116.083 163.336C118.983 158.326 122.033 153.456 125.273 148.736C125.613 148.206 125.983 147.676 126.343 147.156C126.643 146.716 126.953 146.266 127.263 145.826C135.383 134.306 144.463 123.756 154.613 114.516C155.053 114.116 155.493 113.716 155.943 113.316C156.833 112.526 157.733 111.736 158.643 110.966C159.553 110.196 160.463 109.426 161.393 108.676C172.673 99.4762 185.203 91.8362 199.123 86.1662C199.883 85.8462 200.653 85.5362 201.423 85.2362C202.133 84.9562 202.853 84.6862 203.563 84.4162C223.563 76.9862 246.303 73.4962 272.183 75.0462C274.733 75.1962 277.263 75.4662 279.783 75.8462C279.793 75.8462 279.803 75.8462 279.813 75.8562C279.833 75.8562 279.853 75.8562 279.873 75.8562C280.273 75.9062 280.673 75.9662 281.073 76.0362C286.003 76.8462 296.203 78.0662 305.613 76.1762C305.683 76.1662 305.763 76.1462 305.833 76.1362C305.853 76.1262 305.883 76.1262 305.903 76.1162C310.373 75.2462 314.873 74.5162 319.433 74.2762C333.463 73.4962 359.443 74.6062 387.503 88.4962C387.543 88.5262 387.593 88.5462 387.633 88.5662C387.683 88.6062 387.743 88.6262 387.803 88.6562C411.073 100.266 435.743 120.696 456.183 156.176C456.263 156.296 456.323 156.406 456.383 156.526C467.433 175.766 477.243 199.416 484.913 228.466C484.913 228.466 484.943 228.586 485.003 228.836C485.033 228.926 485.063 229.046 485.093 229.186C485.123 229.316 485.163 229.476 485.213 229.646C487.803 240.236 506.673 321.096 505.753 433.156C505.753 433.366 505.743 433.566 505.743 433.776C505.743 433.926 505.743 434.066 505.733 434.216C505.663 441.906 505.503 449.736 505.233 457.706H431.613L432.003 424.346" stroke="#003049" stroke-width="10" stroke-linecap="round" stroke-linejoin="round"/>
<path d="M402.982 116.267C402.982 116.267 437.132 146.627 444.722 201.007L385.912 210.487L367.572 165.597L359.982 213.657H286.632L271.452 161.797L252.482 212.387L180.992 200.477" stroke="#003049" stroke-width="10" stroke-linecap="round" stroke-linejoin="round"/>
<path d="M137.362 357.446C137.362 357.446 135.982 293.326 144.942 256.096" stroke="#003049" stroke-width="10" stroke-linecap="round" stroke-linejoin="round"/>
<path d="M137.303 342.067C118.793 338.377 91.0934 328.587 96.4434 303.467C102.653 274.277 130.783 268.727 142.623 267.667" stroke="#003049" stroke-width="10" stroke-linecap="round" stroke-linejoin="round"/>
<path d="M438.482 262.716C452.652 266.116 472.202 276.416 468.292 307.636C465.722 328.166 453.292 336.356 439.892 339.006" stroke="#003049" stroke-width="10" stroke-linecap="round" stroke-linejoin="round"/>
</g>
<defs>
<clipPath id="clip0_9_1219">
<rect width="1205.42" height="879.09" fill="white" transform="translate(0.242188 0.866211)"/>
</clipPath>
</defs>
</svg>
