<svg width="394" height="178" viewBox="0 0 394 178" fill="none" xmlns="http://www.w3.org/2000/svg">
<path d="M356.725 148.994V139.4C356.725 139.342 356.772 139.283 356.842 139.283H366.072C366.13 139.283 366.189 139.33 366.189 139.4V148.994C366.189 149.052 366.142 149.111 366.072 149.111H356.842C356.783 149.111 356.725 149.064 356.725 148.994Z" fill="#003049"/>
<path d="M195.207 85.0179V29.3336C195.207 29.275 195.254 29.2164 195.324 29.2164H205.317C205.375 29.2164 205.434 29.2633 205.434 29.3336V77.9811C205.434 78.0398 205.481 78.0984 205.551 78.0984H218.851C218.909 78.0984 218.968 78.1453 218.968 78.2157V85.0296C218.968 85.0883 218.921 85.1469 218.851 85.1469H195.336C195.277 85.1469 195.219 85.1 195.219 85.0296L195.207 85.0179Z" fill="#003049"/>
<path d="M222.556 84.9944L233.698 29.3102C233.698 29.3102 233.756 29.2164 233.815 29.2164H244.534C244.534 29.2164 244.64 29.2516 244.652 29.3102L255.793 84.9944C255.805 85.0648 255.758 85.1352 255.676 85.1352H246.458C246.458 85.1352 246.352 85.1 246.34 85.0413L244.159 72.3283C244.159 72.3283 244.1 72.2344 244.042 72.2344H234.495C234.495 72.2344 234.39 72.2696 234.378 72.3283L232.138 85.0531C232.138 85.0531 232.079 85.1469 232.021 85.1469H222.662C222.591 85.1469 222.533 85.0765 222.544 85.0062L222.556 84.9944ZM235.562 65.7372H242.892C242.963 65.7372 243.021 65.6785 243.01 65.6082L239.351 42.9732C239.327 42.8442 239.151 42.8442 239.128 42.9732L235.469 65.6082C235.469 65.6785 235.516 65.7372 235.586 65.7372H235.562Z" fill="#003049"/>
<path d="M272.844 85.8975C268.704 85.8975 265.479 85.1352 263.181 83.6222C260.882 82.1093 259.287 79.9397 258.419 77.1367C257.539 74.3337 257.105 70.9678 257.105 67.0624V29.3454C257.105 29.2867 257.152 29.2281 257.223 29.2281H266.933C266.992 29.2281 267.051 29.275 267.051 29.3454V68.2352C267.051 69.9827 267.168 71.6246 267.391 73.1727C267.625 74.7207 268.165 75.9522 269.009 76.9021C269.854 77.8521 271.132 78.3212 272.844 78.3212C274.639 78.3212 275.941 77.8521 276.75 76.9021C277.559 75.9639 278.087 74.7207 278.333 73.1727C278.579 71.6363 278.708 69.9827 278.708 68.2352V29.3454C278.708 29.2867 278.755 29.2281 278.826 29.2281H288.466C288.525 29.2281 288.583 29.275 288.583 29.3454V67.0624C288.583 70.9795 288.149 74.3337 287.27 77.1367C286.39 79.9397 284.819 82.1093 282.543 83.6222C280.268 85.1469 277.031 85.8975 272.844 85.8975Z" fill="#003049"/>
<path d="M293.135 85.0179V29.3336C293.135 29.275 293.182 29.2164 293.252 29.2164H300.172C300.172 29.2164 300.254 29.2398 300.277 29.2867L313.623 60.6003C313.67 60.7176 313.846 60.6824 313.846 60.5534V29.3336C313.846 29.275 313.893 29.2164 313.964 29.2164H322.161C322.22 29.2164 322.279 29.2633 322.279 29.3336V85.0179C322.279 85.0765 322.232 85.1352 322.161 85.1352H315.594C315.594 85.1352 315.5 85.1117 315.488 85.0648L302.071 52.2618C302.025 52.1445 301.849 52.1797 301.849 52.3087V85.0179C301.849 85.0765 301.802 85.1352 301.731 85.1352H293.264C293.205 85.1352 293.147 85.0883 293.147 85.0179H293.135Z" fill="#003049"/>
<path d="M342.356 85.8975C338.263 85.8975 335.05 85.0882 332.728 83.4815C330.405 81.8748 328.787 79.6699 327.86 76.8904C326.934 74.1109 326.477 70.8974 326.477 67.2618V47.3126C326.477 43.4893 326.934 40.182 327.86 37.3673C328.775 34.5643 330.405 32.3946 332.728 30.8817C335.05 29.3571 338.263 28.6065 342.356 28.6065C346.226 28.6065 349.252 29.2633 351.434 30.5768C353.615 31.8903 355.175 33.7668 356.09 36.2062C357.004 38.6456 357.473 41.4721 357.473 44.6972V49.2711C357.473 49.3298 357.427 49.3884 357.356 49.3884H347.786C347.728 49.3884 347.669 49.3415 347.669 49.2711V44.5565C347.669 42.9967 347.587 41.5659 347.423 40.2758C347.258 38.9857 346.825 37.9654 346.109 37.2031C345.394 36.4408 344.162 36.0655 342.415 36.0655C340.667 36.0655 339.389 36.4642 338.58 37.2734C337.771 38.0827 337.255 39.1616 337.032 40.5221C336.797 41.8825 336.692 43.4072 336.692 45.1077V69.408C336.692 71.4369 336.856 73.1023 337.172 74.4158C337.489 75.7294 338.075 76.7145 338.932 77.383C339.788 78.0515 340.949 78.3799 342.415 78.3799C344.115 78.3799 345.323 77.9811 346.039 77.1719C346.754 76.3627 347.2 75.2954 347.387 73.9584C347.575 72.6214 347.657 71.132 347.657 69.4666V64.5409C347.657 64.4823 347.704 64.4236 347.774 64.4236H357.344C357.403 64.4236 357.462 64.4705 357.462 64.5409V68.9154C357.462 72.2344 357.028 75.1664 356.148 77.7114C355.269 80.2681 353.744 82.2618 351.563 83.7161C349.381 85.1703 346.308 85.8857 342.344 85.8857L342.356 85.8975Z" fill="#003049"/>
<path d="M361.273 85.0179V29.3336C361.273 29.275 361.32 29.2164 361.391 29.2164H371.313C371.371 29.2164 371.43 29.2633 371.43 29.3336V52.508C371.43 52.5667 371.477 52.6253 371.547 52.6253H382.783C382.841 52.6253 382.9 52.5784 382.9 52.508V29.3336C382.9 29.275 382.947 29.2164 383.017 29.2164H392.939C392.998 29.2164 393.056 29.2633 393.056 29.3336V85.0179C393.056 85.0765 393.009 85.1352 392.939 85.1352H383.017C382.958 85.1352 382.9 85.0883 382.9 85.0179V59.9787C382.9 59.9201 382.853 59.8615 382.783 59.8615H371.547C371.488 59.8615 371.43 59.9084 371.43 59.9787V85.0179C371.43 85.0765 371.383 85.1352 371.313 85.1352H361.391C361.332 85.1352 361.273 85.0883 361.273 85.0179Z" fill="#003049"/>
<path d="M195.207 148.923V93.2392C195.207 93.1805 195.254 93.1219 195.324 93.1219H208.94C211.427 93.1219 213.667 93.3565 215.672 93.8138C217.678 94.2712 219.402 95.0453 220.844 96.1242C222.299 97.2032 223.413 98.6692 224.187 100.51C224.973 102.352 225.36 104.674 225.36 107.477C225.36 109.729 225.043 111.664 224.433 113.27C223.811 114.877 222.908 116.156 221.712 117.106C220.645 117.95 219.331 118.548 217.772 118.9C217.654 118.923 217.654 119.088 217.772 119.111C219.742 119.51 221.384 120.249 222.709 121.316C224.163 122.489 225.242 124.025 225.958 125.901C226.673 127.79 227.025 130.065 227.025 132.739C227.025 135.413 226.697 137.77 226.028 139.811C225.36 141.863 224.374 143.564 223.061 144.924C221.747 146.285 220.117 147.305 218.159 147.997C216.2 148.689 213.913 149.029 211.286 149.029H195.313C195.254 149.029 195.195 148.982 195.195 148.912L195.207 148.923ZM205.422 115.862C205.422 115.921 205.469 115.98 205.539 115.98H208.87C210.899 115.98 212.459 115.686 213.561 115.077C214.664 114.478 215.438 113.564 215.872 112.321C216.306 111.077 216.528 109.518 216.528 107.629C216.528 105.741 216.2 104.123 215.532 103.044C214.863 101.965 213.866 101.226 212.529 100.839C211.192 100.452 209.492 100.252 207.416 100.252H205.528C205.469 100.252 205.41 100.299 205.41 100.37V115.874L205.422 115.862ZM205.422 141.746C205.422 141.805 205.469 141.863 205.539 141.863H209.292C212.377 141.863 214.464 141.113 215.578 139.623C216.681 138.134 217.232 135.812 217.232 132.68C217.232 130.428 216.962 128.599 216.435 127.192C215.907 125.784 215.027 124.74 213.808 124.048C212.588 123.356 210.969 123.016 208.94 123.016H205.539C205.481 123.016 205.422 123.063 205.422 123.134V141.746Z" fill="#003049"/>
<path d="M230.203 148.923V93.2392C230.203 93.1805 230.25 93.1219 230.32 93.1219H243.596C247.373 93.1219 250.551 93.5676 253.155 94.4706C255.758 95.3737 257.729 96.8983 259.089 99.0562C260.449 101.226 261.13 104.17 261.13 107.887C261.13 110.139 260.919 112.168 260.508 113.962C260.098 115.757 259.394 117.293 258.397 118.548C257.424 119.791 256.087 120.753 254.386 121.445C254.328 121.468 254.304 121.527 254.316 121.574L262.045 148.876C262.068 148.947 262.009 149.017 261.939 149.017H251.958C251.958 149.017 251.865 148.982 251.853 148.935L245.133 123.497C245.133 123.497 245.074 123.415 245.027 123.415H240.535C240.477 123.415 240.418 123.462 240.418 123.532V148.912C240.418 148.97 240.371 149.029 240.301 149.029H230.309C230.25 149.029 230.191 148.982 230.191 148.912L230.203 148.923ZM240.418 116.894C240.418 116.953 240.465 117.012 240.535 117.012H243.596C245.579 117.012 247.15 116.718 248.323 116.144C249.496 115.569 250.34 114.654 250.844 113.388C251.349 112.121 251.607 110.503 251.607 108.521C251.607 105.718 251.091 103.607 250.059 102.211C249.026 100.804 247.056 100.1 244.159 100.1H240.547C240.489 100.1 240.43 100.147 240.43 100.217V116.906L240.418 116.894Z" fill="#003049"/>
<path d="M265.75 148.923V93.2392C265.75 93.1805 265.797 93.1219 265.867 93.1219H275.719C275.777 93.1219 275.836 93.1688 275.836 93.2392V148.923C275.836 148.982 275.789 149.041 275.719 149.041H265.867C265.809 149.041 265.75 148.994 265.75 148.923Z" fill="#003049"/>
<path d="M296.057 149.803C291.964 149.803 288.751 148.994 286.429 147.387C284.107 145.78 282.488 143.575 281.562 140.796C280.635 138.016 280.178 134.803 280.178 131.167V111.218C280.178 107.395 280.635 104.087 281.562 101.273C282.476 98.4698 284.107 96.3001 286.429 94.7872C288.751 93.2626 291.964 92.512 296.057 92.512C299.928 92.512 302.953 93.1688 305.135 94.4823C307.316 95.7958 308.876 97.6723 309.791 100.112C310.706 102.551 311.175 105.378 311.175 108.603V113.177C311.175 113.235 311.128 113.294 311.057 113.294H301.487C301.429 113.294 301.37 113.247 301.37 113.177V108.462C301.37 106.902 301.288 105.471 301.124 104.181C300.96 102.891 300.526 101.871 299.81 101.109C299.095 100.346 297.863 99.971 296.116 99.971C294.368 99.971 293.09 100.37 292.281 101.179C291.472 101.988 290.956 103.067 290.733 104.428C290.498 105.788 290.393 107.313 290.393 109.013V133.314C290.393 135.342 290.557 137.008 290.874 138.321C291.19 139.635 291.777 140.62 292.633 141.289C293.489 141.957 294.65 142.285 296.116 142.285C297.817 142.285 299.025 141.887 299.74 141.077C300.455 140.268 300.901 139.201 301.089 137.864C301.276 136.527 301.358 135.038 301.358 133.372V128.446C301.358 128.388 301.405 128.329 301.476 128.329H311.046C311.104 128.329 311.163 128.376 311.163 128.446V132.821C311.163 136.14 310.729 139.072 309.849 141.617C308.97 144.174 307.445 146.167 305.264 147.622C303.082 149.076 300.01 149.791 296.046 149.791L296.057 149.803Z" fill="#003049"/>
<path d="M314.832 148.923V93.2392C314.832 93.1805 314.879 93.1219 314.949 93.1219H324.942C325 93.1219 325.059 93.1688 325.059 93.2392V117.164C325.059 117.281 325.223 117.328 325.282 117.211L336.071 93.1923C336.071 93.1923 336.13 93.1219 336.177 93.1219H345.665C345.747 93.1219 345.806 93.204 345.77 93.2861L335.156 118.067C335.156 118.067 335.145 118.126 335.156 118.149L346.884 148.876C346.908 148.947 346.861 149.029 346.779 149.029H336.881C336.881 149.029 336.787 148.994 336.775 148.959L327.498 123.802C327.463 123.708 327.334 123.697 327.287 123.79L325.07 127.825C325.07 127.825 325.059 127.86 325.059 127.883V148.935C325.059 148.994 325.012 149.052 324.942 149.052H314.949C314.891 149.052 314.832 149.005 314.832 148.935V148.923Z" fill="#003049"/>
<path d="M150.735 41.0381L83.827 2.40631C80.4259 0.436016 76.2273 0.436016 72.8145 2.40631L5.90665 41.0381C2.50555 43.0084 0.40625 46.6441 0.40625 50.5729V127.825C0.40625 131.754 2.50555 135.389 5.90665 137.36L72.8145 175.991C76.2156 177.962 80.4142 177.962 83.827 175.991L150.735 137.36C154.136 135.389 156.235 131.754 156.235 127.825V50.5729C156.235 46.6441 154.136 43.0084 150.735 41.0381ZM145.152 123.568C145.152 126.148 143.792 128.552 141.587 129.877L83.8622 163.185C81.3994 164.604 78.3267 162.821 78.3267 159.983L78.3618 93.5089V91.3744C78.3618 90.0492 79.0655 88.8412 80.2031 88.1844L81.9154 87.1993L139.64 53.8919C142.103 52.4729 145.176 54.2555 145.176 57.0937L145.141 123.568H145.152Z" fill="#003049"/>
<path d="M145.153 123.568V125.702C145.153 127.027 144.449 128.235 143.312 128.892L141.6 129.877C143.804 128.552 145.165 126.148 145.165 123.568H145.153Z" fill="white"/>
</svg>
