<svg width="209" height="91" viewBox="0 0 209 91" fill="none" xmlns="http://www.w3.org/2000/svg">
<path d="M0.867188 12.1001C0.867188 11.8201 1.0972 11.5901 1.3772 11.5901H9.11719C9.77719 11.5901 10.3372 11.5401 10.7872 11.4301C11.2472 11.3201 11.6272 11.1501 11.9372 10.9201C12.2472 10.6901 12.4672 10.3901 12.6072 10.0401C12.7472 9.69006 12.8172 9.27006 12.8172 8.78006C12.8172 8.29006 12.7472 7.87006 12.6072 7.51006C12.4672 7.15006 12.2472 6.86006 11.9572 6.63006C11.6572 6.41006 11.2872 6.24006 10.8472 6.12006C10.3972 6.00006 9.86719 5.94006 9.25719 5.94006H1.38719C1.10719 5.94006 0.877197 5.71006 0.877197 5.43006V1.32006C0.877197 1.04006 1.10719 0.810059 1.38719 0.810059H9.1572C10.5172 0.810059 11.7372 0.990059 12.8172 1.35006C13.8972 1.71006 14.8172 2.23006 15.5672 2.91006C16.3172 3.59006 16.8972 4.42006 17.3072 5.41006C17.7072 6.40006 17.9172 7.51006 17.9172 8.74006C17.9172 9.59006 17.8272 10.3701 17.6472 11.1001C17.4672 11.8201 17.1972 12.4701 16.8372 13.0601C16.4772 13.6401 16.0372 14.1501 15.5172 14.5901C14.9972 15.0201 14.4072 15.3701 13.7472 15.6301V12.5101C14.4272 12.8301 15.0272 13.2201 15.5472 13.6701C16.0672 14.1301 16.5072 14.6501 16.8572 15.2301C17.2072 15.8101 17.4772 16.4701 17.6572 17.2001C17.8372 17.9301 17.9272 18.7101 17.9272 19.5401C17.9272 20.7701 17.7272 21.8801 17.3172 22.8701C16.9172 23.8601 16.3372 24.7001 15.5772 25.3901C14.8272 26.0801 13.9072 26.6101 12.8272 26.9701C11.7472 27.3301 10.5272 27.5101 9.16719 27.5101H1.39719C1.11719 27.5101 0.887192 27.2801 0.887192 27.0001V22.8601C0.887192 22.5801 1.11719 22.3501 1.39719 22.3501H9.2672C9.8872 22.3501 10.4172 22.3001 10.8772 22.1901C11.3372 22.0801 11.7072 21.9101 11.9872 21.6801C12.2772 21.4501 12.4872 21.1501 12.6272 20.7901C12.7672 20.4301 12.8372 20.0001 12.8372 19.5201C12.8372 19.0401 12.7672 18.6101 12.6272 18.2601C12.4872 17.9101 12.2672 17.6201 11.9772 17.4001C11.6772 17.1801 11.2972 17.0101 10.8272 16.9101C10.3572 16.8001 9.79719 16.7501 9.13719 16.7501H1.39719C1.11719 16.7501 0.887192 16.5201 0.887192 16.2401V12.1001H0.867188Z" fill="#111111"/>
<path d="M6.56708 44.6501C5.77708 44.5201 5.03708 44.2401 4.33708 43.8101C3.63708 43.3701 3.01709 42.8401 2.48709 42.2001C1.95709 41.5601 1.53708 40.8201 1.22708 39.9701C0.917081 39.1201 0.76709 38.2101 0.76709 37.2301C0.76709 36.1301 0.977085 35.1001 1.38708 34.1601C1.79708 33.2201 2.37709 32.4101 3.10709 31.7401C3.83709 31.0701 4.70709 30.5501 5.71709 30.1601C6.72709 29.7801 7.82709 29.5901 9.01709 29.5901C10.3071 29.5901 11.4971 29.8101 12.5871 30.2601C13.6671 30.7101 14.6071 31.3301 15.3871 32.1401C16.1771 32.9501 16.7871 33.9101 17.2371 35.0401C17.6871 36.1701 17.9071 37.4001 17.9071 38.7301C17.9071 40.0601 17.6871 41.2801 17.2371 42.3801C16.7871 43.4701 16.1471 44.4101 15.3071 45.1801C14.4671 45.9501 13.4571 46.5501 12.2771 46.9601C11.0971 47.3701 9.76708 47.5801 8.27708 47.5801H1.36708C1.08708 47.5801 0.857086 47.3501 0.857086 47.0701V43.0901C0.857086 42.8101 1.08708 42.5801 1.36708 42.5801H4.64708L5.75708 42.1301H8.68709C9.32709 42.1301 9.88708 42.0501 10.3871 41.8901C10.8871 41.7301 11.3071 41.5001 11.6571 41.2101C12.0071 40.9101 12.2771 40.5501 12.4571 40.1101C12.6371 39.6701 12.7271 39.1901 12.7271 38.6601C12.7271 38.1301 12.6371 37.6101 12.4571 37.1601C12.2771 36.7101 12.0171 36.3301 11.6971 36.0101C11.3671 35.6901 10.9771 35.4501 10.5171 35.2801C10.0571 35.1101 9.55708 35.0301 9.00708 35.0301C8.45708 35.0301 7.99709 35.1101 7.57709 35.2701C7.15709 35.4301 6.78708 35.6601 6.47708 35.9501C6.16708 36.2501 5.93708 36.6101 5.77708 37.0301C5.61708 37.4501 5.53708 37.9301 5.53708 38.4601C5.53708 39.1001 5.65709 39.7101 5.90709 40.2901C6.14709 40.8701 6.49708 41.4001 6.94708 41.8801C7.39708 42.3601 7.93708 42.7801 8.56708 43.1501C9.20708 43.5201 9.93709 43.8201 10.7671 44.0601L6.56708 44.6301V44.6501Z" fill="#111111"/>
<path d="M17.8272 59.2701C17.7972 59.5001 17.7472 59.7301 17.6972 59.9501C17.6472 60.1701 17.4372 60.3501 17.1972 60.3501H13.2572C12.9372 60.3501 12.7072 60.0701 12.7572 59.7601C12.7572 59.7501 12.7572 59.7301 12.7572 59.7201C12.7872 59.4901 12.8072 59.2301 12.8072 58.9601C12.8072 58.3901 12.7172 57.8801 12.5572 57.4501C12.3872 57.0101 12.1272 56.6501 11.7772 56.3501C11.4272 56.0501 10.9872 55.8301 10.4672 55.6801C9.94719 55.5301 9.33719 55.4601 8.63719 55.4601H1.3772C1.0972 55.4601 0.867188 55.2301 0.867188 54.9501V50.5201C0.867188 50.2401 1.0972 50.0101 1.3772 50.0101H8.82719C11.7172 50.0101 13.9472 50.7101 15.5272 52.1101C17.1072 53.5101 17.8972 55.5101 17.8972 58.1001C17.8972 58.5201 17.8672 58.9201 17.8172 59.2801L17.8272 59.2701Z" fill="#111111"/>
<path d="M17.3569 62.9301V67.36C17.3569 67.64 17.1269 67.8701 16.8469 67.8701H1.36693C1.08693 67.8701 0.856934 67.64 0.856934 67.36V62.9301C0.856934 62.6501 1.08693 62.42 1.36693 62.42H16.8469C17.1269 62.42 17.3569 62.6501 17.3569 62.9301ZM23.5369 67.0201C23.0869 67.5201 22.4969 67.7701 21.7569 67.7701C21.3969 67.7701 21.0669 67.71 20.7669 67.58C20.4669 67.45 20.2169 67.2701 20.0069 67.0401C19.7969 66.8101 19.6269 66.5201 19.5169 66.2001C19.3969 65.8701 19.3369 65.5201 19.3369 65.1301C19.3369 64.3901 19.5569 63.76 19.9869 63.25C20.4169 62.74 21.0069 62.4901 21.7569 62.4901C22.1369 62.4901 22.4769 62.5501 22.7769 62.6801C23.0769 62.8101 23.3269 62.99 23.5369 63.22C23.7469 63.45 23.9169 63.7301 24.0269 64.0601C24.1469 64.3901 24.2069 64.7401 24.2069 65.1301C24.2069 65.8901 23.9869 66.53 23.5369 67.03V67.0201Z" fill="#111111"/>
<path d="M6.56708 85.1301C5.77708 85.0001 5.03708 84.7201 4.33708 84.2901C3.63708 83.8501 3.01709 83.3201 2.48709 82.6801C1.95709 82.0401 1.53708 81.3001 1.22708 80.4501C0.917081 79.6001 0.76709 78.6901 0.76709 77.7101C0.76709 76.6101 0.977085 75.5801 1.38708 74.6401C1.79708 73.7001 2.37709 72.8901 3.10709 72.2201C3.83709 71.5501 4.70709 71.0301 5.71709 70.6401C6.72709 70.2601 7.82709 70.0701 9.01709 70.0701C10.3071 70.0701 11.4971 70.2901 12.5871 70.7401C13.6671 71.1901 14.6071 71.8101 15.3871 72.6201C16.1771 73.4301 16.7871 74.3901 17.2371 75.5201C17.6871 76.6501 17.9071 77.8801 17.9071 79.2101C17.9071 80.5401 17.6871 81.7601 17.2371 82.8601C16.7871 83.9501 16.1471 84.8901 15.3071 85.6601C14.4671 86.4301 13.4571 87.0301 12.2771 87.4401C11.0971 87.8501 9.76708 88.0601 8.27708 88.0601H1.36708C1.08708 88.0601 0.857086 87.8301 0.857086 87.5501V83.5701C0.857086 83.2901 1.08708 83.0601 1.36708 83.0601H4.64708L5.75708 82.6101H8.68709C9.32709 82.6101 9.88708 82.5301 10.3871 82.3701C10.8871 82.2101 11.3071 81.9801 11.6571 81.6901C12.0071 81.3901 12.2771 81.0301 12.4571 80.5901C12.6371 80.1501 12.7271 79.6701 12.7271 79.1401C12.7271 78.6101 12.6371 78.0901 12.4571 77.6401C12.2771 77.1901 12.0171 76.8101 11.6971 76.4901C11.3671 76.1701 10.9771 75.9301 10.5171 75.7601C10.0571 75.5901 9.55708 75.5101 9.00708 75.5101C8.45708 75.5101 7.99709 75.5901 7.57709 75.7501C7.15709 75.9101 6.78708 76.1401 6.47708 76.4301C6.16708 76.7301 5.93708 77.0901 5.77708 77.5101C5.61708 77.9301 5.53708 78.4101 5.53708 78.9401C5.53708 79.5801 5.65709 80.1901 5.90709 80.7701C6.14709 81.3501 6.49708 81.8801 6.94708 82.3601C7.39708 82.8401 7.93708 83.2601 8.56708 83.6301C9.20708 84.0001 9.93709 84.3001 10.7671 84.5401L6.56708 85.1101V85.1301Z" fill="#111111"/>
<path d="M43.9873 36.9501C45.1573 34.7801 46.6273 32.8101 48.4273 31.0101C50.2173 29.2201 52.3073 27.6601 54.6773 26.3201C57.0573 24.9901 59.6373 23.9401 62.4273 23.2001C65.2173 22.4501 68.1573 22.0801 71.2373 22.0801C75.8173 22.0801 79.9673 22.8501 83.6773 24.3901C87.3873 25.9301 90.5473 28.1401 93.1773 31.0101C95.7973 33.8901 97.8173 37.3001 99.2373 41.2601C100.657 45.2201 101.357 49.6101 101.357 54.4501C101.357 59.7001 100.477 64.5101 98.7373 68.8901C96.9873 73.2701 94.5473 77.0401 91.4273 80.2001C88.3073 83.3701 84.5473 85.8201 80.1773 87.5701C75.7973 89.3201 70.9473 90.1901 65.6173 90.1901C60.2873 90.1901 55.4673 89.2901 51.1773 87.5001C46.8873 85.7101 43.2173 83.1701 40.1773 79.8801C37.1373 76.5901 34.7973 72.6101 33.1773 67.9401C31.5573 63.2701 30.7373 58.1101 30.7373 52.4401V2.82007C30.7373 1.72007 31.6373 0.820068 32.7373 0.820068H50.1073C51.2073 0.820068 52.1073 1.72007 52.1073 2.82007V53.9401C52.1073 56.4401 52.3973 58.6701 52.9873 60.6301C53.5673 62.5901 54.4273 64.2401 55.5473 65.5701C56.6673 66.9001 58.0873 67.9501 59.7973 68.6901C61.5073 69.4401 63.4373 69.8101 65.6073 69.8101C67.7773 69.8101 69.7473 69.4601 71.5473 68.7501C73.3373 68.0401 74.8573 67.0601 76.1073 65.8101C77.3573 64.5601 78.3173 63.0601 78.9873 61.3101C79.6573 59.5601 79.9873 57.5601 79.9873 55.3101C79.9873 53.3101 79.6773 51.4601 79.0473 49.7501C78.4273 48.0401 77.4873 46.5801 76.2373 45.3701C74.9873 44.1601 73.5073 43.2501 71.7973 42.6201C70.0873 42.0001 68.1473 41.6801 65.9873 41.6801C61.6573 41.6801 57.7173 42.9501 54.1773 45.4901C50.6373 48.0301 47.8173 51.6001 45.7373 56.1801L43.9873 36.9301V36.9501Z" fill="#111111"/>
<path d="M167.227 65.5801C166.727 68.6601 165.617 71.5801 163.917 74.3301C162.207 77.0801 160.107 79.5001 157.607 81.5801C155.107 83.6601 152.187 85.3101 148.857 86.5201C145.527 87.7301 141.937 88.3301 138.107 88.3301C133.777 88.3301 129.747 87.5201 126.047 85.8901C122.337 84.2701 119.177 82.0101 116.547 79.1401C113.927 76.2601 111.857 72.8501 110.357 68.8901C108.857 64.9301 108.107 60.6201 108.107 55.9501C108.107 50.8701 108.987 46.2001 110.727 41.9501C112.477 37.7001 114.937 34.0301 118.107 30.9501C121.277 27.8701 125.067 25.4501 129.477 23.7001C133.897 21.9501 138.727 21.0801 143.977 21.0801C149.227 21.0801 153.997 21.9601 158.287 23.7001C162.577 25.4501 166.247 27.9701 169.287 31.2601C172.327 34.5501 174.667 38.5101 176.287 43.1301C177.907 47.7501 178.727 52.9901 178.727 58.8201V85.9401C178.727 87.0401 177.827 87.9401 176.727 87.9401H161.107C160.007 87.9401 159.107 87.0401 159.107 85.9401V73.0701L157.357 68.6901V57.1901C157.357 54.6901 157.047 52.4601 156.417 50.5001C155.797 48.5401 154.897 46.8801 153.727 45.5001C152.557 44.1201 151.117 43.0801 149.417 42.3801C147.707 41.6701 145.807 41.3201 143.727 41.3201C141.647 41.3201 139.607 41.6801 137.847 42.3801C136.097 43.0901 134.597 44.0901 133.347 45.3801C132.097 46.6701 131.137 48.2101 130.467 50.0001C129.797 51.7901 129.467 53.7701 129.467 55.9401C129.467 58.1101 129.777 59.9001 130.407 61.5601C131.027 63.2301 131.927 64.6701 133.097 65.8701C134.267 67.0801 135.677 67.9901 137.347 68.6201C139.017 69.2401 140.887 69.5601 142.967 69.5601C145.467 69.5601 147.857 69.0801 150.157 68.1201C152.447 67.1601 154.537 65.8101 156.407 64.0601C158.277 62.3101 159.947 60.1801 161.407 57.6801C162.867 55.1801 164.047 52.3101 164.967 49.0601L167.217 65.5601L167.227 65.5801Z" fill="#111111"/>
<path d="M205.537 70.5101C207.657 72.3901 208.727 74.9501 208.727 78.2001C208.727 79.8701 208.437 81.3501 207.847 82.6401C207.267 83.9301 206.467 85.0401 205.467 85.9501C204.467 86.8701 203.277 87.5701 201.907 88.0701C200.527 88.5701 199.047 88.8201 197.467 88.8201C194.217 88.8201 191.527 87.8601 189.407 85.9401C187.287 84.0201 186.217 81.4401 186.217 78.1901C186.217 76.6101 186.507 75.1701 187.097 73.8801C187.677 72.5901 188.477 71.4901 189.477 70.5701C190.477 69.6501 191.647 68.9501 192.977 68.4501C194.307 67.9501 195.807 67.7001 197.477 67.7001C200.727 67.7001 203.417 68.6401 205.537 70.5101Z" fill="#111111"/>
</svg>
